<svg xmlns="http://www.w3.org/2000/svg" width="185.471" height="50.478" viewBox="0 0 185.471 50.478">
  <g id="Group_254" data-name="Group 254" transform="translate(0 0.001)">
    <g id="Group_255" data-name="Group 255">
      <path id="Path_118" data-name="Path 118" d="M41.3,28.812a3.509,3.509,0,0,0,2.51-1.047,3.586,3.586,0,0,0,0-5.053,3.523,3.523,0,0,0-2.51-1.047,3.665,3.665,0,0,0-.731.076l-2.627,2.644c-.078.155-.163.309-.257.457L39.3,23.22a2.82,2.82,0,0,1,3.988-.018l.018.018a2.866,2.866,0,0,1,0,4.033,2.82,2.82,0,0,1-3.988.018l-.018-.018L37.359,25.3c-.048.062-.1.125-.154.185l3.174,3.2a3.337,3.337,0,0,0,.921.124" fill="#c3b187"/>
      <path id="Path_119" data-name="Path 119" d="M33.32,11.376l.115-.115a3.488,3.488,0,0,1,.761-.579,9.047,9.047,0,0,0,.1-1.207,4.517,4.517,0,0,0-.729.323,8.022,8.022,0,0,1-.252,1.578" fill="#c3b187"/>
      <path id="Path_120" data-name="Path 120" d="M36.937,18.081c.048.048.094.1.14.148a8.011,8.011,0,0,1,1.7-.784l.277-.279a4.578,4.578,0,0,0,.559-.683,8.8,8.8,0,0,0-2.193.736l-.676.681c.064.059.129.116.193.181" fill="#c3b187"/>
      <path id="Path_121" data-name="Path 121" d="M38.259,20.257c.03.095.058.189.083.284a5.428,5.428,0,0,1,1.9-.759l.589-.593c.073-.074.142-.148.211-.221a6.229,6.229,0,0,0-1.856.36Z" fill="#c3b187"/>
      <path id="Path_122" data-name="Path 122" d="M33.391,5.326a8.622,8.622,0,0,0-.6-1.045c-.4-.145-.8-.277-1.212-.4A8.178,8.178,0,0,1,32.7,5.54q.344-.12.694-.214" fill="#c3b187"/>
      <path id="Path_123" data-name="Path 123" d="M33.5,8.044a5.959,5.959,0,0,1,.688-.228,8.641,8.641,0,0,0-.213-.967,6.85,6.85,0,0,0-.688.2,8.427,8.427,0,0,1,.213.995" fill="#c3b187"/>
      <path id="Path_124" data-name="Path 124" d="M17.407,8a7.132,7.132,0,0,0-.656-.418,9.329,9.329,0,0,0-.144,1.105,6.755,6.755,0,0,1,.7.551A8.279,8.279,0,0,1,17.407,8" fill="#c3b187"/>
      <path id="Path_125" data-name="Path 125" d="M19.394,3.794c-.408.115-.814.242-1.212.378a8.776,8.776,0,0,0-.974,1.82c.215.108.424.228.63.358a8.16,8.16,0,0,1,1.556-2.556" fill="#c3b187"/>
      <path id="Path_126" data-name="Path 126" d="M30.854,9.175a5.517,5.517,0,0,1-.069.87l.6-.6c.06-.06.121-.118.183-.175V9.178A6.453,6.453,0,0,0,31.458,8a7.819,7.819,0,0,0-.646.517,5.152,5.152,0,0,1,.042.657" fill="#c3b187"/>
      <path id="Path_127" data-name="Path 127" d="M26.43,3.006c-.364-.018-.731-.028-1.1-.028s-.713.012-1.066.028a6.159,6.159,0,0,0-3.321,1.74,6.238,6.238,0,0,0-1.6,2.771c.048.048.1.092.149.141l.447.45A5.505,5.505,0,0,1,29.206,5.22l.036.036A5.53,5.53,0,0,1,30.335,6.82c.193-.145.392-.284.6-.413a6.268,6.268,0,0,0-1.183-1.659A6.159,6.159,0,0,0,26.43,3.006" fill="#c3b187"/>
      <path id="Path_128" data-name="Path 128" d="M25.447,1.081a8.16,8.16,0,0,1,2.615.431,23.947,23.947,0,0,1,2.4.407,8.821,8.821,0,0,0-9.908-.074,24.173,24.173,0,0,1,2.393-.369,8.129,8.129,0,0,1,2.505-.395" fill="#c3b187"/>
      <path id="Path_129" data-name="Path 129" d="M46.166,17.783a8.758,8.758,0,0,0-2.031-1c-.073.228-.158.455-.25.676a8.045,8.045,0,0,1,2.666,1.511q-.176-.6-.385-1.187" fill="#c3b187"/>
      <path id="Path_130" data-name="Path 130" d="M26.7,12.641c.078,0,.154-.007.231-.009l.924-.93a3.463,3.463,0,0,0,.63-.861Z" fill="#c3b187"/>
      <path id="Path_131" data-name="Path 131" d="M25.344,44.874a3.509,3.509,0,0,0,2.51-1.047,3.559,3.559,0,0,0,.892-1.5l-.6-.6a2.835,2.835,0,1,1-4.806-2.442l1.025-1.031-.05-.028c-.085.048-.17.095-.257.138l-2.189,2.2a3.6,3.6,0,0,0,.965,3.262,3.5,3.5,0,0,0,2.51,1.048" fill="#c3b187"/>
      <path id="Path_132" data-name="Path 132" d="M28.612,39.9a3.567,3.567,0,0,0-.676-1.038c-.1.018-.206.032-.312.044Z" fill="#c3b187"/>
      <path id="Path_133" data-name="Path 133" d="M11.464,17.259l-.876-.881a9.033,9.033,0,0,0-1-.058c-.133,0-.268,0-.4.009a4.672,4.672,0,0,0,.545.715,7.947,7.947,0,0,1,1.731.215" fill="#c3b187"/>
      <path id="Path_134" data-name="Path 134" d="M42.284,17.1a6.98,6.98,0,0,0,.277-.692,9.022,9.022,0,0,0-1.038-.085,6.2,6.2,0,0,1-.36.72H41.3a8.5,8.5,0,0,1,.983.057" fill="#c3b187"/>
      <path id="Path_135" data-name="Path 135" d="M17.753,11.973l-1.009-1.015A8.767,8.767,0,0,0,17.393,13a5.36,5.36,0,0,1,.69-.217,7.9,7.9,0,0,1-.33-.81" fill="#c3b187"/>
      <path id="Path_136" data-name="Path 136" d="M20.4,38.839a5.68,5.68,0,0,1-.688.09l-.225.226a6.3,6.3,0,0,0-.358,1.878l.809-.814a5.6,5.6,0,0,1,.462-1.38" fill="#c3b187"/>
      <path id="Path_137" data-name="Path 137" d="M17.027,38.417a8.9,8.9,0,0,0-.3,1.225l.958-.964a5.176,5.176,0,0,1-.658-.261" fill="#c3b187"/>
      <path id="Path_138" data-name="Path 138" d="M30.451,12.758c.057-.081.112-.164.163-.247l-.231.233c.022.007.045.009.068.014" fill="#c3b187"/>
      <path id="Path_139" data-name="Path 139" d="M25.344,5.6a3.509,3.509,0,0,0-2.51,1.047,3.567,3.567,0,0,0-.917,3.449l2.514,2.531.17-.171-1.258-1.266a2.866,2.866,0,0,1,0-4.033,2.82,2.82,0,0,1,3.988-.018l.018.018a2.837,2.837,0,0,1,.815,1.717l.612-.616A3.553,3.553,0,0,0,25.344,5.6" fill="#c3b187"/>
      <path id="Path_140" data-name="Path 140" d="M19.133,9.59a6.27,6.27,0,0,0,.429,1.91l1.192,1.2q.155-.024.309-.042a5.492,5.492,0,0,1-1.084-2.22Z" fill="#c3b187"/>
      <path id="Path_141" data-name="Path 141" d="M48.484,30.459a8.969,8.969,0,0,0,0-10.44q.237,1.07.378,2.171a8.293,8.293,0,0,1,0,6.1c-.091.732-.22,1.459-.378,2.169" fill="#c3b187"/>
      <path id="Path_142" data-name="Path 142" d="M25.447,49.4a8.071,8.071,0,0,1-2.51-.4,23.553,23.553,0,0,1-2.393-.369,8.819,8.819,0,0,0,9.91-.072,23.77,23.77,0,0,1-2.386.406,8.168,8.168,0,0,1-2.621.435" fill="#c3b187"/>
      <path id="Path_143" data-name="Path 143" d="M33.281,43.442a7.109,7.109,0,0,0,.692.182,8.779,8.779,0,0,0,.218-1,6.668,6.668,0,0,1-.692-.2,7.846,7.846,0,0,1-.218,1.018" fill="#c3b187"/>
      <path id="Path_144" data-name="Path 144" d="M31.575,46.593c.408-.122.814-.254,1.212-.4a8.889,8.889,0,0,0,.6-1.041q-.354-.087-.7-.2a8.229,8.229,0,0,1-1.112,1.641" fill="#c3b187"/>
      <path id="Path_145" data-name="Path 145" d="M29.24,45.2a5.485,5.485,0,0,1-7.757.036l-.036-.036a5.518,5.518,0,0,1-1.483-2.716l-.3.3c-.1.1-.195.185-.293.277a6.26,6.26,0,0,0,1.568,2.649,6.151,6.151,0,0,0,3.539,1.774c.282.012.566.018.85.018s.6-.009.892-.021a6.149,6.149,0,0,0,3.523-1.774,6.288,6.288,0,0,0,1.146-1.585q-.309-.187-.6-.4A5.511,5.511,0,0,1,29.24,45.2" fill="#c3b187"/>
      <path id="Path_146" data-name="Path 146" d="M30.806,40.553a5.81,5.81,0,0,1,.048.722,5.607,5.607,0,0,1-.055.787,7.242,7.242,0,0,0,.642.489,6.279,6.279,0,0,0,.128-1.26c-.124-.108-.248-.219-.364-.337Z" fill="#c3b187"/>
      <path id="Path_147" data-name="Path 147" d="M33.37,39.3a8.514,8.514,0,0,1,.2,1.394,4.535,4.535,0,0,0,.727.286,8.7,8.7,0,0,0-.092-1.1,3.547,3.547,0,0,1-.835-.575" fill="#c3b187"/>
      <path id="Path_148" data-name="Path 148" d="M45.69,20.794a6.164,6.164,0,0,0-2.755-1.613c-.151.215-.312.422-.484.623a5.461,5.461,0,0,1,2.732,1.5,5.573,5.573,0,0,1,0,7.845,5.465,5.465,0,0,1-2.874,1.53c.172.2.332.415.484.632a6.166,6.166,0,0,0,2.9-1.652,6.237,6.237,0,0,0,1.726-3.329c.018-.362.03-.724.03-1.091s-.011-.752-.03-1.124a6.239,6.239,0,0,0-1.729-3.321" fill="#c3b187"/>
      <path id="Path_149" data-name="Path 149" d="M8.583,19.74a5.6,5.6,0,0,1,.818-.06,5.374,5.374,0,0,1,.717.048l-.763-.768a6.245,6.245,0,0,0-1.382.164l.06.062Z" fill="#c3b187"/>
      <path id="Path_150" data-name="Path 150" d="M43.987,33.74a8.724,8.724,0,0,0,2.182-1.048q.206-.588.383-1.188a8.072,8.072,0,0,1-2.8,1.557c.089.222.166.45.24.679" fill="#c3b187"/>
      <path id="Path_151" data-name="Path 151" d="M40.028,30.626a5.4,5.4,0,0,1-1.522-.614c-.011.168-.03.337-.057.505l.527.531a6.121,6.121,0,0,0,1.886.429c-.071-.076-.14-.152-.215-.226Z" fill="#c3b187"/>
      <path id="Path_152" data-name="Path 152" d="M41.3,33.436c-.092,0-.183,0-.273-.007a6.079,6.079,0,0,1,.351.727,8.778,8.778,0,0,0,1.025-.069,6.95,6.95,0,0,0-.273-.692,8.222,8.222,0,0,1-.83.041" fill="#c3b187"/>
      <path id="Path_153" data-name="Path 153" d="M38.622,32.983a8.067,8.067,0,0,1-.953-.406,5.931,5.931,0,0,1-.433.588,8.662,8.662,0,0,0,2.228.8,4.607,4.607,0,0,0-.591-.729Z" fill="#c3b187"/>
      <path id="Path_154" data-name="Path 154" d="M4.42,32.48a8.687,8.687,0,0,0,.743.485c.094-.221.193-.441.3-.655a8.137,8.137,0,0,1-1.437-1.087c.121.425.252.842.394,1.257" fill="#c3b187"/>
      <path id="Path_155" data-name="Path 155" d="M5.03,17.587c-.209.127-.413.265-.614.411q-.213.62-.387,1.255A8.128,8.128,0,0,1,5.345,18.24c-.114-.212-.219-.431-.315-.653" fill="#c3b187"/>
      <path id="Path_156" data-name="Path 156" d="M17.224,44.529a8.881,8.881,0,0,0,.958,1.777c.4.138.8.263,1.212.378a8.161,8.161,0,0,1-1.533-2.5c-.209.123-.419.239-.637.345" fill="#c3b187"/>
      <path id="Path_157" data-name="Path 157" d="M8.968,22.421l-.6-.6a3.513,3.513,0,0,0-1.487.9,3.574,3.574,0,0,0,1.6,5.978l.612-.616a2.808,2.808,0,0,1-1.707-.827,2.866,2.866,0,0,1,0-4.033,2.762,2.762,0,0,1,1.582-.8" fill="#c3b187"/>
      <path id="Path_158" data-name="Path 158" d="M7.852,17.23a6.093,6.093,0,0,1-.362-.658,8.567,8.567,0,0,0-1,.311c.094.221.2.438.314.651a8.1,8.1,0,0,1,1.048-.3" fill="#c3b187"/>
      <path id="Path_159" data-name="Path 159" d="M2.074,20.519a8.975,8.975,0,0,0,0,9.434,23.576,23.576,0,0,1-.381-2.724,8.345,8.345,0,0,1,0-3.98,23.678,23.678,0,0,1,.381-2.73" fill="#c3b187"/>
      <path id="Path_160" data-name="Path 160" d="M17.306,41.315a6.084,6.084,0,0,1-.694.512,8.864,8.864,0,0,0,.147,1.124,7.329,7.329,0,0,0,.66-.4,7.707,7.707,0,0,1-.113-1.241" fill="#c3b187"/>
      <path id="Path_161" data-name="Path 161" d="M11.441,33.221a8.138,8.138,0,0,1-1.6.21,4.528,4.528,0,0,0-.525.72c.089,0,.181.007.273.007a8.593,8.593,0,0,0,1.178-.081l.754-.759c-.025-.032-.052-.065-.08-.1" fill="#c3b187"/>
      <path id="Path_162" data-name="Path 162" d="M5.5,29.149A5.563,5.563,0,0,1,6.863,20.3c-.174-.178-.337-.362-.5-.549a6.26,6.26,0,0,0-3.126,4.6c-.011.291-.018.584-.018.879s.007.565.018.844a6.276,6.276,0,0,0,3.25,4.681c.156-.192.321-.378.493-.558A5.314,5.314,0,0,1,5.5,29.149" fill="#c3b187"/>
      <path id="Path_163" data-name="Path 163" d="M9.488,31.491l.738-.743a.222.222,0,0,0-.009-.037,5.687,5.687,0,0,1-.814.062,5.8,5.8,0,0,1-.672-.042l-.518.521c-.034.035-.069.072-.1.108A6.279,6.279,0,0,0,9.4,31.5a.485.485,0,0,1,.085-.005" fill="#c3b187"/>
      <path id="Path_164" data-name="Path 164" d="M6.626,33.645a9.049,9.049,0,0,0,.995.288,6.469,6.469,0,0,1,.346-.66,7.869,7.869,0,0,1-1.034-.284,6.864,6.864,0,0,0-.307.656" fill="#c3b187"/>
      <path id="Path_165" data-name="Path 165" d="M39.889,13.755a3.072,3.072,0,0,0-.894-2.173,3.04,3.04,0,0,0-4.3-.019l-.019.019L32.543,13.73a5.677,5.677,0,0,1,.543.473l2.1-2.111a2.324,2.324,0,0,1,3.287-.018l.018.018a2.361,2.361,0,0,1,0,3.327l-2.136,2.15a5.43,5.43,0,0,1,.545.471L39,15.927a3.072,3.072,0,0,0,.889-2.172" fill="#c3b187"/>
      <path id="Path_166" data-name="Path 166" d="M14.038,10.682a3.03,3.03,0,0,0-2.159.9,3.089,3.089,0,0,0,0,4.347l1.157,1.165a5.349,5.349,0,0,1,.708-.307l-1.359-1.368a2.361,2.361,0,0,1,0-3.327,2.324,2.324,0,0,1,3.287-.018l.018.018,1.151,1.158a5.463,5.463,0,0,1,.7-.311l-1.346-1.357a3.015,3.015,0,0,0-2.157-.9" fill="#c3b187"/>
      <path id="Path_167" data-name="Path 167" d="M27,12.629l4.121-4.148a7.71,7.71,0,0,1,10.9-.048l.048.048a7.836,7.836,0,0,1,0,11.024l-3.706,3.731a5.439,5.439,0,0,1-.882,1.908l5.1-5.129a8.556,8.556,0,0,0,0-12.044,8.421,8.421,0,0,0-11.909-.055l-.055.055-4.747,4.778A5.476,5.476,0,0,1,27,12.629" fill="#c3b187"/>
      <path id="Path_168" data-name="Path 168" d="M14.038,39.776a3.03,3.03,0,0,0,2.159-.9l.584-.588a5.214,5.214,0,0,1-.621-.395l-.47.473a2.324,2.324,0,0,1-3.287.018l-.018-.018a2.361,2.361,0,0,1,0-3.327l.589-.593a5.216,5.216,0,0,1-.623-.392l-.472.475a3.089,3.089,0,0,0,0,4.347,3.021,3.021,0,0,0,2.159.9" fill="#c3b187"/>
      <path id="Path_169" data-name="Path 169" d="M42.492,13.877a5.781,5.781,0,0,0-9.826-4.155l-.041.041-2.87,2.889a5.258,5.258,0,0,1,.864.15l2.512-2.529a5.039,5.039,0,0,1,7.126-.034l.034.034a5.121,5.121,0,0,1,0,7.208L38.06,19.728a5.168,5.168,0,0,1,.266.752L40.8,17.99a5.79,5.79,0,0,0,1.693-4.113" fill="#c3b187"/>
      <path id="Path_170" data-name="Path 170" d="M10.132,40.639a5.75,5.75,0,0,0,8.132.041l.041-.041,1.728-1.74a5.427,5.427,0,0,1-1.043.032l-1.19,1.2a5.039,5.039,0,0,1-7.126.034l-.034-.034a5.121,5.121,0,0,1,0-7.208l.33-.332a5.522,5.522,0,0,1-.36-.658l-.477.48a5.846,5.846,0,0,0,0,8.228Z" fill="#c3b187"/>
      <path id="Path_171" data-name="Path 171" d="M36.832,39.775a3.03,3.03,0,0,0,2.159-.9,3.089,3.089,0,0,0,0-4.347l-1.579-1.59a5.439,5.439,0,0,1-.472.545l1.545,1.555a2.361,2.361,0,0,1,0,3.327,2.324,2.324,0,0,1-3.287.018l-.018-.018-1.578-1.6a5.694,5.694,0,0,1-.47.547l1.545,1.555a3.021,3.021,0,0,0,2.155.9" fill="#c3b187"/>
      <path id="Path_172" data-name="Path 172" d="M14.218,8.058a5.714,5.714,0,0,0-4.087,1.7,5.844,5.844,0,0,0,0,8.228l.9.9a5.452,5.452,0,0,1,.442-.575l-.832-.838a5.121,5.121,0,0,1,0-7.208,5.039,5.039,0,0,1,7.126-.034l.034.034L20.212,12.7c.092.014.183.03.275.051a5.284,5.284,0,0,1,.685-.1L18.307,9.762a5.711,5.711,0,0,0-4.089-1.7" fill="#c3b187"/>
      <path id="Path_173" data-name="Path 173" d="M24.315,38.223a5.362,5.362,0,0,1-1.4.563l-3.149,3.17A7.71,7.71,0,0,1,8.863,42l-.048-.048a7.836,7.836,0,0,1,0-11.024L10.1,29.638a5.476,5.476,0,0,1,.121-1.142L8.308,30.423a8.556,8.556,0,0,0,0,12.044,8.421,8.421,0,0,0,11.909.055l.055-.055,4.151-4.178a1.034,1.034,0,0,0-.108-.066" fill="#c3b187"/>
      <path id="Path_174" data-name="Path 174" d="M37.418,25.229a5.794,5.794,0,0,1-.47.545l5.123,5.157a7.836,7.836,0,0,1,0,11.024,7.71,7.71,0,0,1-10.9.048l-.048-.048-3.09-3.11a5.328,5.328,0,0,1-.917.1l3.5,3.523a8.421,8.421,0,0,0,11.909.055l.055-.055a8.556,8.556,0,0,0,0-12.044Z" fill="#c3b187"/>
      <path id="Path_175" data-name="Path 175" d="M10.112,21.823a5.4,5.4,0,0,1,.1-.923L8.828,19.506a7.836,7.836,0,0,1,0-11.024,7.71,7.71,0,0,1,10.9-.048l.048.048,4.733,4.764a5.53,5.53,0,0,1,.706-.309L20.281,7.972A8.421,8.421,0,0,0,8.372,7.917l-.055.055a8.556,8.556,0,0,0,0,12.044Z" fill="#c3b187"/>
      <path id="Path_176" data-name="Path 176" d="M36.712,42.339A5.714,5.714,0,0,0,40.8,40.634a5.844,5.844,0,0,0,0-8.228l-2.3-2.314a5.384,5.384,0,0,1-.144.874l1.934,1.947a5.121,5.121,0,0,1,0,7.208,5.039,5.039,0,0,1-7.126.034l-.034-.034-1.646-1.657a5.152,5.152,0,0,1-.743.27l1.882,1.894a5.709,5.709,0,0,0,4.09,1.711" fill="#c3b187"/>
      <path id="Path_177" data-name="Path 177" d="M25.406,50.477A25.239,25.239,0,1,1,50.477,25.072c0,.055,0,.111,0,.166A25.185,25.185,0,0,1,25.406,50.477m0-49.036A23.8,23.8,0,1,0,49.044,25.4c0-.053,0-.107,0-.16a23.746,23.746,0,0,0-23.639-23.8" fill="#c3b187"/>
      <path id="Path_178" data-name="Path 178" d="M17.253,15.5A5.02,5.02,0,0,1,24.1,13.613h0a6.088,6.088,0,0,1,.587-.487,5.738,5.738,0,0,0-8.235,2.358,6.136,6.136,0,0,1,.8.016" fill="#c3b187"/>
      <path id="Path_179" data-name="Path 179" d="M37.437,17.534a6.065,6.065,0,0,0-2.787-1.6,5.75,5.75,0,0,0-9.2-2.229c-.085.076-.172.148-.252.231l-.266.268-3.069,3.087A6.057,6.057,0,0,0,17.1,15.773c-.151.016-.3.037-.452.065s-.268.06-.4.095a6.065,6.065,0,0,0-2.787,1.6,6.183,6.183,0,0,0-1.7,5.374c.014.085.028.168.044.254s.039.168.062.254.034.162.057.24a6.244,6.244,0,0,0,.446,1.111c.073.138.156.272.238.406a6.162,6.162,0,0,0,.644.854c.037.042.071.083.11.122s.064.076.1.111l.293.3.777.782.252.254.252.254,1.288,1.3.252-.254.149-.15.252-.254.1-.106.252-.254L14.73,25.5,17.8,22.416l2.608,2.626.507-.51L18.3,21.9l2.354-2.37.252-.254.461-.464,1.588,1.6,1.02,1.027.176.18.176.178.151.152.176.178.03.03-.461.464-.252.254-2.354,2.37-.507.51-.965.971-.507.51-.021.021-1.577,1.587-.252.254-.1.106-.149.15c-.034.035-.064.074-.1.111s-.094.1-.14.157-.078.083-.115.127l-.087.111-.025.032V29.9c-.048.062-.1.122-.142.187.041-.058.085-.113.128-.168-.064.083-.124.166-.183.251l-.073.108c-.025.039-.05.078-.073.118l-.032.055c-.037.06-.071.118-.1.18-.011.021-.023.039-.032.06l-.046.088c0,.007-.007.012-.009.018l-.044.085c-.028.055-.053.111-.078.168-.014.032-.03.065-.046.1,0,.007-.007.014-.009.021a4.879,4.879,0,0,0-.5,3.133c-.092-.039-.181-.085-.273-.129s-.183-.1-.275-.148c-.076-.044-.151-.088-.222-.136-.089-.058-.174-.122-.261-.185s-.176-.134-.261-.2c-.108-.09-.213-.185-.312-.284a5.12,5.12,0,0,1-1-5.747l-.507-.51-.032-.032c-.064.122-.117.247-.172.371a4.872,4.872,0,0,0,0,4.638,5.8,5.8,0,0,0,1.2,1.788,5.64,5.64,0,0,0,.9.738c.094.062.193.115.289.173s.2.113.3.166c.083.042.165.078.25.115s.2.088.3.127.2.074.3.106a.505.505,0,0,0,.055.018c.05.164.1.328.17.489h-.007l.057.113A5.735,5.735,0,0,0,17.467,37.5c.025.025.046.053.071.078a5.86,5.86,0,0,0,3.546,1.673c.179.016.358.025.536.025a5.831,5.831,0,0,0,.894-.076,5.71,5.71,0,0,0,1.781-.584c.133-.069.261-.15.387-.228a5.758,5.758,0,0,0,.74-.561h.032a5.733,5.733,0,0,0,3.819,1.438,5.82,5.82,0,0,0,.894-.076,5.72,5.72,0,0,0,3.186-1.624,5.782,5.782,0,0,0,1.429-2.4,5.824,5.824,0,0,0,2.856-9.134,6.208,6.208,0,0,0-.2-8.5m-2.4.6c0-.106,0-.212-.007-.318a1.481,1.481,0,0,0-.011-.221,4.184,4.184,0,0,1,.4.2,4.721,4.721,0,0,1,1,.761c.018.018.034.042.055.06a4.751,4.751,0,0,1,.186,6.356c-.059.071-.121.141-.186.208-.018.018-.034.042-.053.06l-.252.254-3.321,3.343-.1-.106-.179-.18-.176-.178-.252-.254L29.782,25.75,33.1,22.407l2.34,2.356a4.432,4.432,0,0,0,.417-.6L33.6,21.885a5.8,5.8,0,0,0,1.421-3.3c.01-.154.014-.309.017-.461ZM25.956,29.6l2.608-2.626.713-.718,2.354,2.37.252.254.176.178.176.18.1.106-.715.72-2.606,2.623-.507.51-3.067,3.087-.1-.106L25.164,36l-.176-.178-.252-.254L23.67,34.491l-1.288-1.3L25.449,30.1l2.354,2.37.507-.51Zm3.326-16.64a5.016,5.016,0,0,1,3.573,1.488,5.1,5.1,0,0,1,.9,1.223l.023.051.025.053c.062.127.121.254.174.383.041.1.076.208.108.314s.06.2.085.3.048.178.064.268.03.189.044.286v.016c.014.1.027.2.034.3.011.143.018.286.018.431A5.016,5.016,0,0,1,33.1,21.377c-.078.09-.156.182-.241.268L32.6,21.9l-3.32,3.341-.358.36-.149.15-.713.718-2.608,2.626-.507.51L21.88,32.691l-.713-.718-2.608-2.626,1.6-1.608,1.469-1.479,2.608,2.626.507-.51-2.606-2.628,2.608-2.626.713-.718,2.608,2.626.149-.15.358-.36-2.356-2.37,3.321-3.343,2.334,2.359a4.668,4.668,0,0,0,.424-.593L30.05,18.312a4.651,4.651,0,0,1,2.879-1.133v-.032c-.016-.09-.039-.175-.06-.263s-.041-.178-.066-.265-.053-.152-.08-.228-.066-.18-.1-.27a2.765,2.765,0,0,0-.124-.265c-.014-.028-.025-.06-.041-.088-.163.018-.325.039-.486.072a6.189,6.189,0,0,0-1.38.443,6.1,6.1,0,0,0-1.348.833c-.066.055-.128.118-.195.178-.089.081-.181.157-.266.242l-.252.254-3.067,3.087-.105-.106-.176-.178-.176-.18-.252-.254L22.382,17.79,25.449,14.7l2.363,2.379a6.252,6.252,0,0,1,.566-.448l-2.411-2.427a4.951,4.951,0,0,1,1.618-.948,5.035,5.035,0,0,1,1.7-.3M17.811,21.373l-.507.51-3.066,3.083a4.721,4.721,0,0,1,.241-6.416,4.653,4.653,0,0,1,1.4-.967,5.821,5.821,0,0,0,.821,3.47l.523-.526a5.132,5.132,0,0,1-.607-3.1.543.543,0,0,1,.016-.106,4.639,4.639,0,0,1,1.112-.15H17.8a4.666,4.666,0,0,1,2.209.556,4.587,4.587,0,0,1,.843.586l-.447.45-.252.254Zm2.434,13.144-.309-.311a4.968,4.968,0,0,1-3.234.355c-.009-.044-.023-.088-.032-.132a5.082,5.082,0,0,1-.055-1.571,5.222,5.222,0,0,1,.259-1.117c.014-.039.027-.081.041-.122.032-.085.069-.168.1-.251l.032-.069c.011-.023.032-.074.05-.111.034-.072.073-.143.112-.212l.009-.014c.034-.062.071-.122.108-.182.048-.078.1-.155.151-.231.034-.048.071-.1.1-.145l1.75,1.762.818.824.674.678.188.189.323.325.981.988,1.659,1.67.176.178.176.18.151.152.167.168a5.321,5.321,0,0,1-.552.365c-.112.062-.225.12-.339.175a4.085,4.085,0,0,1-.378.159,5.178,5.178,0,0,1-1.075.27,4.956,4.956,0,0,1-1.217.021,5.013,5.013,0,0,1-4.018-2.861,3.406,3.406,0,0,1-.14-.314,5.8,5.8,0,0,0,3.539-.588Zm13.681.824c-.053.164-.112.326-.179.485a5.034,5.034,0,0,1-7.5,1.694l3.314-3.336a5.7,5.7,0,0,0,3.039,1.2,4.658,4.658,0,0,0,.243-.708,4.991,4.991,0,0,1-2.766-1.01l2.4-2.418.839-.844a5.169,5.169,0,0,1,.431.674,6.152,6.152,0,0,1,.372,3.507.361.361,0,0,0,.083-.021,4.849,4.849,0,0,1-.234.773Zm4.231-5.74a5.077,5.077,0,0,1-3.186,4.725,5.831,5.831,0,0,0-1.144-4.437l3.316-3.339A5.07,5.07,0,0,1,38.157,29.6" fill="#c3b187"/>
      <g id="Group_256" data-name="Group 256">
        <path id="Path_180" data-name="Path 180" d="M68.555,21.044l1.593-1.477-.94-2.633H63.833l-.91,2.591L64.6,21.034v.427H60.035v-.427l1.758-1.467L65.928,8.319,64.855,6.905V6.49l3.41-.448.465,1.373,4.559,12.194,1.643,1.435v.415H68.565v-.415Zm-4.362-5.12h4.65L66.507,9.369Z" fill="#c3b187"/>
        <path id="Path_181" data-name="Path 181" d="M79.544,10.961l-.124,1.58h.206a3.215,3.215,0,0,1,.573-.7,3.993,3.993,0,0,1,.816-.584,4.928,4.928,0,0,1,.992-.4,3.972,3.972,0,0,1,1.1-.15,2.561,2.561,0,0,1,.9.157l-.527,3.184h-.33c-.11-.138-.227-.281-.351-.431a3.53,3.53,0,0,0-.4-.411,2.069,2.069,0,0,0-.461-.307,1.186,1.186,0,0,0-.527-.12,1.511,1.511,0,0,0-.507.088,2.6,2.6,0,0,0-.481.233,3,3,0,0,0-.433.328,4.564,4.564,0,0,0-.367.369v6.14l1.467,1.091v.427H75.533V21.03l1.4-1.091V13.12L75.672,11.9V11.5l3.587-.791Z" fill="#c3b187"/>
        <path id="Path_182" data-name="Path 182" d="M93.6,19.348a6.571,6.571,0,0,1-.827.921,5.372,5.372,0,0,1-1.034.75,5.54,5.54,0,0,1-1.245.505,5.466,5.466,0,0,1-1.462.187,5.13,5.13,0,0,1-1.985-.374A4.45,4.45,0,0,1,85.5,20.28a4.721,4.721,0,0,1-1-1.65,6.24,6.24,0,0,1-.358-2.153,6.38,6.38,0,0,1,.424-2.367,5.353,5.353,0,0,1,1.174-1.82,5.174,5.174,0,0,1,1.783-1.165,6.029,6.029,0,0,1,2.253-.411,8.384,8.384,0,0,1,.91.053c.316.035.626.081.926.136s.582.118.848.187a5.328,5.328,0,0,1,.676.219l-.516,3h-.548c-.289-.519-.575-1.006-.857-1.456s-.536-.833-.766-1.144a2.529,2.529,0,0,0-.259-.053,2.311,2.311,0,0,0-.371-.03,2.428,2.428,0,0,0-1.128.265,2.542,2.542,0,0,0-.889.775,3.9,3.9,0,0,0-.58,1.239,6.025,6.025,0,0,0-.206,1.664,7.84,7.84,0,0,0,.218,1.924,4.49,4.49,0,0,0,.63,1.451,2.85,2.85,0,0,0,1.008.916,2.924,2.924,0,0,0,2.187.189,3.723,3.723,0,0,0,.761-.344,4.628,4.628,0,0,0,.656-.473c.2-.173.383-.344.548-.51Z" fill="#c3b187"/>
        <path id="Path_183" data-name="Path 183" d="M98.013,5.6l-.144,1.915v5.025a7.557,7.557,0,0,1,.775-.7,6.13,6.13,0,0,1,.894-.584,5.3,5.3,0,0,1,1-.4,3.947,3.947,0,0,1,1.107-.15,3.526,3.526,0,0,1,1.281.228,3.04,3.04,0,0,1,1.013.634,2.938,2.938,0,0,1,.667.974,3.133,3.133,0,0,1,.243,1.253v6.14l1.416,1.1v.415H100.8v-.415l1.375-1.1V14.332a2.942,2.942,0,0,0-.128-.884,2.181,2.181,0,0,0-.358-.7,1.6,1.6,0,0,0-.543-.452,1.531,1.531,0,0,0-.7-.162,2,2,0,0,0-.759.15,3.954,3.954,0,0,0-.7.374,4.32,4.32,0,0,0-.61.494c-.186.18-.355.351-.507.51v6.273l1.364,1.1v.415H93.777v-.409l1.4-1.1V7.421l-1.148-.916v-.5l3.637-.738Z" fill="#c3b187"/>
        <path id="Path_184" data-name="Path 184" d="M111.21,11.034l-.124,1.539V19.94l1.416,1.1v.415h-5.51V21.04l1.4-1.1V13.116l-1.259-1.207V11.49l3.731-.771Zm-.021-3.507a1.5,1.5,0,0,1-.115.6,1.345,1.345,0,0,1-.325.464,1.483,1.483,0,0,1-.5.3,1.8,1.8,0,0,1-.626.1,1.781,1.781,0,0,1-.614-.1,1.388,1.388,0,0,1-.811-.766,1.577,1.577,0,0,1,0-1.181,1.373,1.373,0,0,1,.321-.468,1.465,1.465,0,0,1,.49-.307,1.776,1.776,0,0,1,1.24.007,1.592,1.592,0,0,1,.5.307,1.3,1.3,0,0,1,.325.464,1.445,1.445,0,0,1,.116.58Z" fill="#c3b187"/>
        <path id="Path_185" data-name="Path 185" d="M116.6,21.71a3.876,3.876,0,0,1-1.148-.162,2.507,2.507,0,0,1-.914-.5,2.286,2.286,0,0,1-.605-.858,3.2,3.2,0,0,1-.218-1.239V11.886h-1.355v-.634l1.384-.625,2.015-2.363h.58v2.718h3.122v.9h-3.071v6.774a1.551,1.551,0,0,0,.362,1.17,1.457,1.457,0,0,0,1.034.339,1.83,1.83,0,0,0,.935-.233,5.246,5.246,0,0,0,.708-.494l.465.676a4.973,4.973,0,0,1-.584.577,4.323,4.323,0,0,1-.754.51,4.615,4.615,0,0,1-.91.365,3.849,3.849,0,0,1-1.046.144" fill="#c3b187"/>
        <path id="Path_186" data-name="Path 186" d="M129.551,19.336a9.077,9.077,0,0,1-.848.937,5.206,5.206,0,0,1-1,.754,5.1,5.1,0,0,1-1.21.5,5.463,5.463,0,0,1-1.467.182,5.084,5.084,0,0,1-2.026-.39,4.473,4.473,0,0,1-1.549-1.087,4.9,4.9,0,0,1-.992-1.67,6.278,6.278,0,0,1-.351-2.139,6.766,6.766,0,0,1,.383-2.321,5.352,5.352,0,0,1,1.07-1.8,4.779,4.779,0,0,1,1.639-1.17,5.167,5.167,0,0,1,2.088-.415,4.415,4.415,0,0,1,1.923.406,4.124,4.124,0,0,1,1.426,1.107,4.892,4.892,0,0,1,.878,1.65A6.453,6.453,0,0,1,129.8,15.9H122.93v.067a.508.508,0,0,0,0,.078,6.292,6.292,0,0,0,.28,1.733,4.084,4.084,0,0,0,.676,1.3,2.9,2.9,0,0,0,1.018.817,3.021,3.021,0,0,0,1.313.281,2.593,2.593,0,0,0,.873-.141,3.254,3.254,0,0,0,.729-.36,4.217,4.217,0,0,0,.61-.489q.277-.27.516-.519Zm-4.4-7.708a1.651,1.651,0,0,0-.837.224,2.072,2.072,0,0,0-.688.671,3.911,3.911,0,0,0-.481,1.119,6.473,6.473,0,0,0-.206,1.567l4.135-.219a8.094,8.094,0,0,0-.128-1.546,3.145,3.145,0,0,0-.378-1.045,1.534,1.534,0,0,0-.605-.588,1.751,1.751,0,0,0-.817-.183Z" fill="#c3b187"/>
        <path id="Path_187" data-name="Path 187" d="M140,19.348a6.57,6.57,0,0,1-.827.921,5.4,5.4,0,0,1-1.034.75,5.54,5.54,0,0,1-1.245.505,5.466,5.466,0,0,1-1.462.187,5.131,5.131,0,0,1-1.985-.374A4.45,4.45,0,0,1,131.9,20.28a4.706,4.706,0,0,1-1-1.65,6.24,6.24,0,0,1-.358-2.153,6.381,6.381,0,0,1,.424-2.367,5.353,5.353,0,0,1,1.174-1.82,5.174,5.174,0,0,1,1.783-1.165,6.029,6.029,0,0,1,2.253-.411,8.384,8.384,0,0,1,.91.053c.316.035.626.081.926.136s.582.118.848.187a5.328,5.328,0,0,1,.676.219l-.516,3h-.548c-.289-.519-.575-1.006-.857-1.456s-.536-.833-.766-1.144a2.53,2.53,0,0,0-.259-.053,2.293,2.293,0,0,0-.371-.03,2.428,2.428,0,0,0-1.128.265,2.55,2.55,0,0,0-.889.775,3.925,3.925,0,0,0-.58,1.239,6.063,6.063,0,0,0-.206,1.664,7.84,7.84,0,0,0,.218,1.924,4.511,4.511,0,0,0,.63,1.451,2.85,2.85,0,0,0,1.008.916,2.924,2.924,0,0,0,2.187.189,3.723,3.723,0,0,0,.761-.344,4.627,4.627,0,0,0,.656-.473c.2-.173.383-.344.548-.51Z" fill="#c3b187"/>
        <path id="Path_188" data-name="Path 188" d="M144.482,21.71a3.876,3.876,0,0,1-1.148-.162,2.5,2.5,0,0,1-.915-.5,2.286,2.286,0,0,1-.605-.858,3.2,3.2,0,0,1-.218-1.239V11.886h-1.354v-.634l1.384-.625,2.015-2.363h.58v2.718h3.122v.9h-3.069v6.774a1.551,1.551,0,0,0,.362,1.17,1.457,1.457,0,0,0,1.034.339,1.83,1.83,0,0,0,.935-.233,5.2,5.2,0,0,0,.707-.488l.465.676a4.972,4.972,0,0,1-.584.577,4.323,4.323,0,0,1-.754.51,4.677,4.677,0,0,1-.91.365,3.817,3.817,0,0,1-1.047.138" fill="#c3b187"/>
        <path id="Path_189" data-name="Path 189" d="M152.045,11.034l-.124,1.5v5.224a4.587,4.587,0,0,0,.1.978,2.581,2.581,0,0,0,.309.8,1.687,1.687,0,0,0,.536.547,1.431,1.431,0,0,0,.779.2,2.256,2.256,0,0,0,.745-.136,4.012,4.012,0,0,0,.729-.344,4.341,4.341,0,0,0,.63-.457,3.092,3.092,0,0,0,.461-.489V13.116l-1.272-1.207v-.415l3.74-.771.342.311-.135,1.5v6.959l1.169,1.165v.332l-3.472.718L156.261,20a3.694,3.694,0,0,1-.713.655,5.521,5.521,0,0,1-.956.547,5.921,5.921,0,0,1-1.107.369,5.168,5.168,0,0,1-1.162.136,3.5,3.5,0,0,1-1.169-.2,2.761,2.761,0,0,1-1.657-1.567,3.428,3.428,0,0,1-.254-1.368V13.116l-1.272-1.207v-.415l3.743-.771Z" fill="#c3b187"/>
        <path id="Path_190" data-name="Path 190" d="M164.869,10.961l-.124,1.58h.206a3.214,3.214,0,0,1,.573-.7,3.993,3.993,0,0,1,.816-.584,4.928,4.928,0,0,1,.992-.4,3.972,3.972,0,0,1,1.1-.15,2.561,2.561,0,0,1,.9.157l-.527,3.184h-.33c-.11-.138-.227-.281-.351-.431a3.53,3.53,0,0,0-.4-.411,2.092,2.092,0,0,0-.461-.307,1.189,1.189,0,0,0-.527-.12,1.511,1.511,0,0,0-.507.088,2.6,2.6,0,0,0-.481.233,3,3,0,0,0-.433.328,4.565,4.565,0,0,0-.367.369v6.14l1.467,1.091v.427h-5.56V21.03l1.4-1.091V13.12L161,11.9V11.5l3.587-.791Z" fill="#c3b187"/>
        <path id="Path_191" data-name="Path 191" d="M175.444,20.16a5.244,5.244,0,0,1-1.509,1.122,4.113,4.113,0,0,1-1.861.431,3.763,3.763,0,0,1-1.116-.157,2.578,2.578,0,0,1-.873-.452,2.041,2.041,0,0,1-.568-.722,2.242,2.242,0,0,1-.2-.978,2.543,2.543,0,0,1,.5-1.55,4.322,4.322,0,0,1,1.334-1.165,7.7,7.7,0,0,1,1.932-.775,13.017,13.017,0,0,1,2.294-.381v-1.18a3.486,3.486,0,0,0-.115-.921,1.756,1.756,0,0,0-.362-.7,1.6,1.6,0,0,0-.646-.443,2.637,2.637,0,0,0-.956-.157,3.219,3.219,0,0,0-.782.1,4.6,4.6,0,0,0-.749.249,5.135,5.135,0,0,0-.676.348,5.6,5.6,0,0,0-.564.39l-.548-.812a6.838,6.838,0,0,1,.94-.681,7.322,7.322,0,0,1,1.075-.535,6.626,6.626,0,0,1,1.194-.353,6.512,6.512,0,0,1,1.277-.125,4.718,4.718,0,0,1,1.73.27,2.638,2.638,0,0,1,1.08.754,2.894,2.894,0,0,1,.573,1.144,6.836,6.836,0,0,1,.2,1.43v5.182l1.169,1.156v.338l-3.452.729Zm-2.047.03a2.305,2.305,0,0,0,1.112-.27,3.707,3.707,0,0,0,.864-.634V16.434A7.307,7.307,0,0,0,174,16.69a4.088,4.088,0,0,0-1.063.468,2.153,2.153,0,0,0-.688.688,1.707,1.707,0,0,0-.243.9,1.468,1.468,0,0,0,.358,1.1,1.432,1.432,0,0,0,1.035.344" fill="#c3b187"/>
        <path id="Path_192" data-name="Path 192" d="M184.189,5.6l-.135,1.9V19.94l1.417,1.091v.427h-5.51v-.427l1.4-1.091V7.421l-1.148-.916v-.5l3.637-.738Z" fill="#c3b187"/>
        <path id="Path_193" data-name="Path 193" d="M70.275,42.582l1.985-.791,1.063-6.056H65.292L64.238,41.8l1.726.78L65.891,43H60.64l.073-.415L62.7,41.79l2.2-12.558-1.7-.791.073-.415H68.5l-.073.415-2.005.791L65.446,34.9h8.022l.992-5.671-1.717-.791.073-.415h5.251l-.073.415-2,.791-2.2,12.558,1.726.791L75.442,43H70.2Z" fill="#c3b187"/>
        <path id="Path_194" data-name="Path 194" d="M81.128,43.248a4.563,4.563,0,0,1-1.788-.339,4.082,4.082,0,0,1-1.38-.937,4.151,4.151,0,0,1-.885-1.43,5.222,5.222,0,0,1-.309-1.832,6.169,6.169,0,0,1,.507-2.492A6.377,6.377,0,0,1,78.644,34.2a6.5,6.5,0,0,1,1.994-1.343,5.96,5.96,0,0,1,2.384-.489,4.521,4.521,0,0,1,1.783.339,4.005,4.005,0,0,1,1.375.946,4.256,4.256,0,0,1,.885,1.447,5.229,5.229,0,0,1,.309,1.825,6.256,6.256,0,0,1-.882,3.23,6.416,6.416,0,0,1-1,1.274,6.244,6.244,0,0,1-2.75,1.592,5.871,5.871,0,0,1-1.614.223m.124-.771a3.769,3.769,0,0,0,1.808-.436,4.258,4.258,0,0,0,1.4-1.211,5.823,5.823,0,0,0,.9-1.837,8.03,8.03,0,0,0,.321-2.321,5.382,5.382,0,0,0-.186-1.467,3.169,3.169,0,0,0-.543-1.107,2.419,2.419,0,0,0-.873-.7,2.726,2.726,0,0,0-1.19-.245,3.724,3.724,0,0,0-1.813.448,4.329,4.329,0,0,0-1.4,1.227,5.957,5.957,0,0,0-.91,1.846,7.817,7.817,0,0,0-.325,2.3,5.306,5.306,0,0,0,.186,1.467,3.154,3.154,0,0,0,.543,1.1,2.333,2.333,0,0,0,.885.692,2.856,2.856,0,0,0,1.191.245Z" fill="#c3b187"/>
        <path id="Path_195" data-name="Path 195" d="M92.246,41.979a4.729,4.729,0,0,1-.516.443,5.14,5.14,0,0,1-.642.411,4.043,4.043,0,0,1-.7.3,2.266,2.266,0,0,1-.688.115,1.628,1.628,0,0,1-.47-.067.69.69,0,0,1-.371-.281,1.347,1.347,0,0,1-.2-.618,3.817,3.817,0,0,1,.078-1.082L90.9,28.829l.053-.344-1.593-.738.062-.427,3.08-.572.238.261-.424,1.82-2.143,12.18a1.855,1.855,0,0,0,.009.771c.055.166.213.249.477.249a1.409,1.409,0,0,0,.371-.053,2.549,2.549,0,0,0,.358-.129c.115-.053.22-.108.321-.166l.252-.15Z" fill="#c3b187"/>
        <path id="Path_196" data-name="Path 196" d="M96.561,32.73l-.371,1.55-.073.415L95.01,41.009a1.76,1.76,0,0,0,0,.771q.083.249.474.249a1.369,1.369,0,0,0,.371-.053,2.549,2.549,0,0,0,.358-.129c.115-.053.22-.108.321-.166s.188-.108.264-.15l.28.448a5.854,5.854,0,0,1-.527.443,5.14,5.14,0,0,1-.642.411,4.042,4.042,0,0,1-.692.3,2.2,2.2,0,0,1-.683.115,1.691,1.691,0,0,1-.474-.067.674.674,0,0,1-.371-.281,1.349,1.349,0,0,1-.186-.618,4.18,4.18,0,0,1,.073-1.082l1.137-6.5.094-.531-1.426-.842.073-.415,2.8-.519Zm.568-3.86a1.07,1.07,0,0,1-.33.812,1.119,1.119,0,0,1-.8.311.8.8,0,0,1-.6-.224.708.708,0,0,1-.218-.5,1.072,1.072,0,0,1,.33-.833,1.154,1.154,0,0,1,.807-.3.816.816,0,0,1,.584.212.7.7,0,0,1,.228.527Z" fill="#c3b187"/>
        <path id="Path_197" data-name="Path 197" d="M109.186,27.1l-.392,1.666-2.162,12.259a1.361,1.361,0,0,0,.016.754.381.381,0,0,0,.378.256,1.878,1.878,0,0,0,.454-.053,2.308,2.308,0,0,0,.378-.129,3.233,3.233,0,0,0,.309-.161c.094-.055.176-.1.252-.145l.289.436a4.117,4.117,0,0,1-.557.464,6.212,6.212,0,0,1-.667.406,4.079,4.079,0,0,1-.688.291,2.021,2.021,0,0,1-.621.108,1.215,1.215,0,0,1-.454-.088.673.673,0,0,1-.341-.318,1.33,1.33,0,0,1-.124-.63,3.759,3.759,0,0,1,.186-1.024h-.124q-.382.31-.894.671a8.818,8.818,0,0,1-1.128.667,8.124,8.124,0,0,1-1.309.515,4.991,4.991,0,0,1-1.437.208,2.2,2.2,0,0,1-1.137-.3,2.81,2.81,0,0,1-.864-.8A3.8,3.8,0,0,1,98,40.991a4.947,4.947,0,0,1-.19-1.4,7.7,7.7,0,0,1,.516-2.836,7.425,7.425,0,0,1,1.4-2.293,6.548,6.548,0,0,1,2.051-1.534,5.689,5.689,0,0,1,2.48-.556,3.451,3.451,0,0,1,.791.083,2.863,2.863,0,0,1,.614.219,2.78,2.78,0,0,1,.49.311c.149.118.291.235.429.353l.786-4.515.062-.344L106,27.741l.073-.448,2.792-.551ZM101.393,42.26a3.789,3.789,0,0,0,1.235-.212,7.255,7.255,0,0,0,1.153-.515,7.622,7.622,0,0,0,.956-.625,5.636,5.636,0,0,0,.635-.551l.951-5.577a3.446,3.446,0,0,0-.779-1.191,1.718,1.718,0,0,0-1.224-.431,3.989,3.989,0,0,0-1.824.436,4.629,4.629,0,0,0-1.515,1.244,6.209,6.209,0,0,0-1.034,1.945,8.02,8.02,0,0,0-.383,2.554,7.424,7.424,0,0,0,.082,1.144,2.983,2.983,0,0,0,.289.925,1.652,1.652,0,0,0,.557.625,1.6,1.6,0,0,0,.9.229" fill="#c3b187"/>
        <path id="Path_198" data-name="Path 198" d="M120.341,41.979a4.361,4.361,0,0,1-.552.464,5.9,5.9,0,0,1-.662.406,4.079,4.079,0,0,1-.688.291,2.021,2.021,0,0,1-.621.108,1.211,1.211,0,0,1-.461-.088.673.673,0,0,1-.337-.318,1.329,1.329,0,0,1-.124-.63,3.759,3.759,0,0,1,.186-1.024h-.12q-.382.311-.9.671a9.205,9.205,0,0,1-1.128.667,7.788,7.788,0,0,1-1.309.515,4.962,4.962,0,0,1-1.432.208,2.2,2.2,0,0,1-1.137-.3,2.81,2.81,0,0,1-.864-.8,3.8,3.8,0,0,1-.548-1.161,4.946,4.946,0,0,1-.19-1.4,7.7,7.7,0,0,1,.516-2.836,7.425,7.425,0,0,1,1.4-2.293,6.548,6.548,0,0,1,2.051-1.534,5.689,5.689,0,0,1,2.48-.556,3.355,3.355,0,0,1,.786.083,2.642,2.642,0,0,1,.61.224,3.258,3.258,0,0,1,.486.311c.144.115.286.233.424.36l.91-.7h.621l-1.467,8.366a1.361,1.361,0,0,0,.016.754.381.381,0,0,0,.378.256,1.806,1.806,0,0,0,.445-.053,2.573,2.573,0,0,0,.383-.129,3.136,3.136,0,0,0,.316-.162c.094-.055.176-.1.252-.145Zm-7.162.291a3.236,3.236,0,0,0,1.1-.212,7.273,7.273,0,0,0,1.116-.515,8.8,8.8,0,0,0,.967-.63,5.475,5.475,0,0,0,.651-.556l.951-5.577a5.694,5.694,0,0,0-.351-.676,2.257,2.257,0,0,0-.429-.515,1.72,1.72,0,0,0-.543-.323,1.958,1.958,0,0,0-.683-.108,3.989,3.989,0,0,0-1.824.436,4.629,4.629,0,0,0-1.515,1.244,6.209,6.209,0,0,0-1.034,1.945,8.02,8.02,0,0,0-.383,2.554,8.571,8.571,0,0,0,.073,1.144,2.705,2.705,0,0,0,.289.932,1.6,1.6,0,0,0,.6.63A1.992,1.992,0,0,0,113.179,42.27Z" fill="#c3b187"/>
        <path id="Path_199" data-name="Path 199" d="M122.85,43.728a9.092,9.092,0,0,0,1.251-1.456q-.072-1.187-.2-2.351c-.085-.777-.183-1.511-.289-2.206s-.227-1.324-.358-1.894a13.42,13.42,0,0,0-.392-1.4,2.319,2.319,0,0,0-.33-.609.679.679,0,0,0-.559-.212,1.087,1.087,0,0,0-.358.058,2.372,2.372,0,0,0-.325.136c-.1.053-.2.106-.289.161l-.238.145-.28-.436a5.9,5.9,0,0,1,.5-.448,5.623,5.623,0,0,1,.589-.415,3.489,3.489,0,0,1,.614-.3,1.692,1.692,0,0,1,.58-.115,1.236,1.236,0,0,1,.885.307,2.22,2.22,0,0,1,.532.974c.131.443.252.939.367,1.484s.216,1.121.3,1.728.167,1.232.232,1.873.112,1.281.14,1.92c.144-.187.321-.422.527-.708s.426-.6.662-.946.472-.715.713-1.107.468-.787.683-1.181.406-.782.573-1.161a7.221,7.221,0,0,0,.387-1.066l-1.116-1.414.073-.415h2.5l-.073.415-.238.667a17.219,17.219,0,0,1-.869,2.176q-.506,1.052-1.121,2.077T126.6,40.053q-.708,1.024-1.462,2.086l-1.022,1.26a12.479,12.479,0,0,1-1.442,1.493,17.342,17.342,0,0,1-1.483,1.165,12.355,12.355,0,0,1-1.293.8,6.441,6.441,0,0,1-.869.4l-.5-2.434.1-.166c.227.062.433.127.614.191s.358.127.527.182.344.1.527.145a4.693,4.693,0,0,0,.614.1,5.536,5.536,0,0,0,.481-.3c.169-.117.336-.241.5-.374s.328-.277.486-.427.327-.3.471-.441" fill="#c3b187"/>
        <path id="Path_200" data-name="Path 200" d="M136.572,35.341q-.15-.654-.3-1.177c-.1-.349-.19-.632-.259-.854-.1-.028-.277-.065-.523-.108a4.379,4.379,0,0,0-.8-.067,3.377,3.377,0,0,0-1.043.141,1.964,1.964,0,0,0-.708.385,1.442,1.442,0,0,0-.4.577,1.989,1.989,0,0,0-.124.708,1.524,1.524,0,0,0,.144.667,2.144,2.144,0,0,0,.4.563,3.693,3.693,0,0,0,.6.494q.351.236.775.464.5.281.981.584a6.026,6.026,0,0,1,.873.66,3.31,3.31,0,0,1,.63.784,1.9,1.9,0,0,1,.243.958,2.677,2.677,0,0,1-.325,1.331,2.924,2.924,0,0,1-.91.983,4.35,4.35,0,0,1-1.4.609,7.15,7.15,0,0,1-1.772.208,8.752,8.752,0,0,1-2.035-.2,5.355,5.355,0,0,1-1.343-.485l.951-2.57h.486q.1.572.227,1.128t.238,1.087a2.243,2.243,0,0,0,.49.171,4.566,4.566,0,0,0,1.112.1q2.75,0,2.75-1.924a1.494,1.494,0,0,0-.165-.7,2.223,2.223,0,0,0-.445-.584,3.819,3.819,0,0,0-.642-.489c-.241-.15-.5-.293-.766-.431q-.505-.26-.981-.54a4.894,4.894,0,0,1-.848-.625,2.79,2.79,0,0,1-.594-.775,2.166,2.166,0,0,1-.222-1,2.58,2.58,0,0,1,.335-1.327,2.877,2.877,0,0,1,.91-.946,4.216,4.216,0,0,1,1.343-.568,6.856,6.856,0,0,1,1.627-.187,7.058,7.058,0,0,1,1.471.161c.236.053.465.113.683.182a3.93,3.93,0,0,1,.573.228l-.857,2.393Z" fill="#c3b187"/>
      </g>
    </g>
  </g>
</svg>
