<svg width="118" height="116" viewBox="0 0 118 116" fill="none" xmlns="http://www.w3.org/2000/svg">
<rect width="117.005" height="114.992" transform="translate(0.820312 0.958008)" fill="#002856"/>
<path d="M55.6297 40.0127C55.1668 40.0127 54.8463 40.3262 54.6632 40.9532C54.6632 41.3712 55.3041 41.7593 56.5911 42.1077C57.8782 42.456 58.5191 43.4512 58.5191 45.0933C58.5191 46.4567 58.4479 48.4819 58.3055 51.169C58.163 53.861 58.0918 55.8664 58.0918 57.195L57.7713 67.8337V69.3017C57.7713 70.4213 57.751 71.4165 57.7154 72.2873C57.6798 73.1631 57.6085 73.7552 57.5017 74.0687C57.3949 74.3822 56.8658 74.6559 55.9197 74.8798C54.9735 75.1087 54.5004 75.4819 54.5004 76.0044C54.5004 76.6313 54.8412 76.9448 55.5178 76.9448H63.3924C64.0334 76.9448 64.359 76.6662 64.359 76.1089C64.359 75.5167 63.7231 75.0938 62.4564 74.8499C61.1898 74.6061 60.5539 74.1682 60.5539 73.5412C60.5539 71.3767 60.676 65.9976 60.9303 57.404C61.0372 53.7366 61.0931 50.5221 61.0931 47.7654C61.8053 49.094 62.5734 50.9799 63.3975 53.4231C64.0385 55.3439 64.4353 56.4983 64.5777 56.8815C66.5057 61.9819 67.6655 65.0571 68.0572 66.1021C69.273 69.2121 70.4837 72.2325 71.6995 75.1684C71.9131 75.7257 72.0912 76.1138 72.2336 76.3228C72.5185 76.7408 72.839 76.9498 73.2001 76.9498H73.5766C74.2175 76.6015 75.006 75.2032 75.9318 72.76C76.3948 71.4662 76.9492 69.8241 77.5902 67.8337L80.9883 59.3546L85.5717 47.9246C85.5717 50.6863 85.6276 54.8065 85.7345 60.2901C85.8413 65.7737 85.8972 69.8789 85.8972 72.6057C85.9329 72.8147 85.9227 73.1232 85.8718 73.5213C85.8159 73.9244 85.7039 74.2279 85.5259 74.4369C85.3479 74.6459 84.7476 74.8201 83.7302 74.9594C82.7128 75.0987 82.1685 75.4321 82.0973 75.9546V76.4771L82.2601 76.6861C82.6924 76.8602 83.0841 76.9498 83.4453 76.9498H99.1794C99.3218 76.8801 99.4693 76.7757 99.6117 76.6363C99.7542 76.497 99.8254 76.3726 99.8254 76.2681C99.8254 75.7058 99.6474 75.3575 99.2913 75.2182L97.9534 74.8499C97.2056 74.5713 96.702 73.6955 96.4527 72.2276C96.3459 71.6006 96.2899 70.5158 96.2899 68.9732L96.1272 46.1979C96.1272 43.6452 96.6562 42.3067 97.7092 42.1823C98.7673 42.0629 99.4693 41.6996 99.8203 41.1075C99.8203 40.376 99.449 40.0078 98.6961 40.0078H87.3165C86.3907 40.0078 85.6226 40.6347 85.0172 41.8937C84.6611 42.9038 84.305 43.9189 83.9489 44.9291L77.346 61.6883C76.9187 60.7827 76.6695 60.2304 76.5982 60.0413C76.527 59.8472 76.2065 58.847 75.6368 57.0308C74.6398 53.6769 73.424 50.1688 71.9996 46.5015C71.6435 45.5958 71.2671 44.6405 70.8754 43.6452C70.4837 42.65 70.1073 41.7842 69.7512 41.0527C69.5731 40.6696 69.4307 40.4258 69.3239 40.3213C69.1102 40.1123 68.8253 40.0078 68.4692 40.0078H55.6297V40.0127ZM19.0085 40.4506C18.8814 40.6248 18.8203 40.8089 18.8203 41.003V49.3328C18.8203 49.8553 19.1611 50.1191 19.8377 50.1191C20.3718 50.1191 20.9619 48.8253 21.6029 46.2427C22.2439 43.6602 23.19 42.3664 24.4414 42.3664H29.3707V73.387C29.3707 74.2578 28.7094 74.7852 27.3868 74.9594C26.0642 75.1336 25.4029 75.5715 25.4029 76.2681C25.6877 76.7209 26.1354 76.9498 26.7407 76.9498H43.3446L43.6651 76.7408L44.0416 76.0591L43.6651 75.3774C43.3803 75.1336 42.6833 74.9594 41.5744 74.8549C40.4654 74.7504 39.916 73.999 39.916 72.6008V42.3664H44.6317C46.2391 42.3664 47.3278 43.6602 47.8975 46.2427C48.4672 48.8303 49.0217 50.1191 49.5559 50.1191C49.8051 50.1191 50.0544 50.0593 50.3036 49.9349C50.5529 49.8155 50.6801 49.6463 50.6801 49.4373V40.8487C50.6801 40.5352 50.4105 40.2367 49.8763 39.958H19.5172C19.3036 40.1123 19.1357 40.2765 19.0085 40.4506Z" fill="white"/>
</svg>
