<svg width="102" height="128" viewBox="0 0 102 128" fill="none" xmlns="http://www.w3.org/2000/svg">
<path d="M74.9472 122C74.8982 120.942 74.8448 119.982 74.8047 119.022C74.5999 114.012 74.3995 109.002 74.1991 103.988C74.0522 100.268 73.9097 96.5531 73.7361 92.8336C73.7227 92.5389 73.5179 92.1728 73.2908 91.9808C70.9799 90.034 68.6512 88.1095 66.3092 86.1984C65.8907 85.8546 65.6591 85.5063 65.6413 84.9303C65.3786 76.384 65.0937 67.8377 64.7864 59.2914C64.7775 58.9789 64.5772 58.5859 64.3367 58.3895C62.9653 57.2598 61.545 56.1926 60.1691 55.0719C59.9064 54.8575 59.6526 54.5182 59.5858 54.1967C58.0363 46.7488 56.5002 39.292 54.9952 31.8352C54.9151 31.4378 55.0932 30.9868 55.1644 30.4465C54.6969 30.2903 54.5366 29.7411 54.412 29.1025C53.192 22.9987 51.9408 16.8948 50.6985 10.7954C50.6763 10.6927 50.6406 10.5945 50.4714 10.4873C50.2221 11.6885 49.9683 12.8851 49.7279 14.0862C48.6993 19.172 47.6841 24.2578 46.6244 29.3392C46.5309 29.7991 46.1614 30.201 45.8809 30.6966C46.3128 30.9779 46.2192 31.5093 46.099 32.0942C44.5807 39.4081 43.0802 46.7265 41.5485 54.0359C41.4684 54.4199 41.2057 54.8441 40.9029 55.0942C39.5538 56.2105 38.1468 57.2598 36.7932 58.3716C36.5483 58.5725 36.3346 58.9565 36.3212 59.2646C36.014 67.8109 35.729 76.3572 35.4619 84.9035C35.4441 85.4661 35.2481 85.8323 34.8207 86.1806C32.492 88.0738 30.1811 89.9804 27.8925 91.9183C27.6209 92.1505 27.3805 92.588 27.3671 92.9408C27.051 100.237 26.766 107.533 26.4721 114.829C26.3786 117.182 26.2673 119.531 26.1605 122C25.8889 121.844 25.6796 121.737 25.4792 121.607C18.2794 116.932 13.2658 110.471 10.0511 102.554C8.10533 97.7587 6.96102 92.7533 6.43116 87.6094C5.12211 74.9373 6.88087 62.6001 10.5275 50.4861C13.1679 41.7166 16.8323 33.4025 21.8726 25.7358C25.4124 20.3553 29.5221 15.4928 34.745 11.6617C38.2224 9.10759 42.0116 7.23223 46.2771 6.41511C51.5133 5.41045 56.4913 6.26776 61.2466 8.57178C66.3582 11.0455 70.5169 14.7337 74.1813 19.0113C80.1166 25.9367 84.3777 33.8535 87.726 42.2926C90.8784 50.2316 93.0335 58.4475 94.2223 66.9134C95.0505 72.8342 95.3488 78.7818 94.9347 84.7517C94.3737 92.8292 92.5704 100.572 88.5898 107.698C85.4018 113.409 81.0917 118.075 75.6017 121.629C75.4191 121.75 75.2188 121.848 74.9516 122" fill="#E9551D"/>
<path d="M58.2889 117.898H42.7316C42.7316 116.205 42.696 114.544 42.7405 112.888C42.834 109.543 42.9275 106.194 43.0923 102.85C43.3683 97.1837 45.9909 92.8124 50.5815 89.5171C54.3127 92.3703 57.0555 95.8397 57.7457 100.658C58.4892 105.824 58.3111 111.026 58.369 116.219C58.3735 116.728 58.369 117.232 58.3646 117.741C58.3646 117.781 58.3289 117.822 58.2933 117.893" fill="#E9551D"/>
</svg>
