<svg width="141" height="98" viewBox="0 0 141 98" fill="none" xmlns="http://www.w3.org/2000/svg">
<path fill-rule="evenodd" clip-rule="evenodd" d="M107.413 41.5258C109.035 41.7155 114.786 41.7614 115.56 33.134C115.56 33.134 113.311 43.9894 104.298 39.1111C99.3582 34.7958 95.2235 29.1524 89.73 26.955C96.4997 25.7247 96.3406 15.0957 96.3406 15.0957C94.7951 25.9695 87.4806 26.147 85.9595 26.0613C85.8799 26.0552 85.8004 26.0491 85.7208 26.0429C85.6902 26.0399 85.678 26.0368 85.678 26.0368H85.6841C85.2036 26.0123 84.7139 26.0093 84.2151 26.0368C81.6749 26.1807 79.5326 26.8478 77.733 27.8578C77.8646 26.1531 78.2502 14.7805 64.6037 17.0483C64.6037 17.0483 79.8845 16.225 74.7124 29.1707V29.1646C74.7124 29.1646 74.7032 29.1891 74.6817 29.2411C74.6542 29.3176 74.6236 29.3911 74.5899 29.4645C74.4063 29.8808 73.9901 30.7254 73.1638 31.919C72.9893 32.1516 72.821 32.3873 72.6557 32.629L72.6343 32.6566H72.6374C69.984 36.5617 68.9189 41.3177 68.4843 44.3995C68.215 44.1486 67.9273 43.9068 67.6243 43.6773C65.3841 41.9818 61.5493 41.59 57.1576 41.5135C41.6319 39.5089 48.7414 27.0376 48.7414 27.0376C42.3358 35.7354 47.8722 40.02 50.7031 41.5105C42.5776 41.5105 34.2623 41.0514 31.1988 34.9733C24.83 22.3367 35.3672 17.5349 35.3672 17.5349C35.3672 17.5349 25.2218 19.3069 28.3985 32.4668C27.4345 31.2121 24.4934 28.7576 17.1973 31.1753C17.1973 31.1753 25.9318 28.5403 29.3656 35.3773L29.3503 35.3039C33.0963 43.258 44.6526 44.3934 52.674 44.577C51.5141 45.3789 50.342 46.8387 49.5065 49.4401C49.5065 49.4401 51.1958 45.0086 56.9709 44.623C57.5738 44.626 58.1308 44.6321 58.6113 44.6474C58.8102 44.6536 59.0061 44.6597 59.1959 44.6689C59.2295 44.675 59.2571 44.675 59.2907 44.6811L59.2754 44.675C67.7192 45.0881 68.5241 48.473 68.9985 50.701L69.2801 54.4439C69.2801 53.9022 69.4545 53.4738 69.8064 53.1524C70.1584 52.8341 70.6236 52.6719 71.2051 52.6719C71.7866 52.6719 72.2456 52.8341 72.5884 53.1524C72.8822 53.4309 73.0414 53.7921 73.0811 54.2328C73.0444 52.7821 72.8638 52.4516 72.1844 49.584C71.2846 45.7921 71.6274 43.0193 71.6641 42.7408C72.7659 35.9894 75.4652 32.0445 78.8072 30.1409C90.3788 25.2931 87.4132 42.7071 87.4132 42.7071C90.1003 33.2687 88.2793 29.945 86.1401 28.8555C90.1279 29.3972 94.1156 31.6466 96.9924 34.7316C113.057 51.9742 124.065 43.1845 124.065 43.1845C116.916 45.8318 111.756 44.4301 107.413 41.5258Z" fill="white"/>
<path fill-rule="evenodd" clip-rule="evenodd" d="M59.4653 19.6833C60.9863 19.4538 62.238 18.5632 62.9848 17.3513C61.9106 16.4148 60.4507 15.9373 58.9297 16.1699C57.4117 16.3995 56.1569 17.2901 55.4102 18.5051C56.4844 19.4385 57.9473 19.9159 59.4653 19.6833Z" fill="white"/>
<path fill-rule="evenodd" clip-rule="evenodd" d="M64.8177 22.4314C65.9501 20.892 66.2714 19.0068 65.8613 17.2807C64.0924 17.4031 62.3877 18.2692 61.2554 19.8086C60.123 21.345 59.8016 23.2302 60.2117 24.9563C61.9776 24.837 63.6854 23.9709 64.8177 22.4314Z" fill="white"/>
<path fill-rule="evenodd" clip-rule="evenodd" d="M60.5943 15.4785C62.1338 16.6139 64.019 16.9322 65.7451 16.5252C65.6257 14.7563 64.7596 13.0485 63.2172 11.9162C61.6777 10.7807 59.7925 10.4624 58.0664 10.8725C58.1888 12.6415 59.058 14.3462 60.5943 15.4785Z" fill="white"/>
<path fill-rule="evenodd" clip-rule="evenodd" d="M12.1316 34.1902C13.6282 33.8413 14.8095 32.8558 15.4614 31.5918C14.3168 30.741 12.8233 30.3799 11.3267 30.7288C9.83015 31.0777 8.65188 32.0631 8 33.3302C9.14155 34.1749 10.6351 34.5391 12.1316 34.1902Z" fill="white"/>
<path fill-rule="evenodd" clip-rule="evenodd" d="M17.6824 36.5126C18.6923 34.8906 18.8668 32.987 18.322 31.2976C16.5684 31.5577 14.931 32.5524 13.9241 34.1775C12.9142 35.7995 12.7428 37.7062 13.2845 39.3925C15.0412 39.1324 16.6724 38.1377 17.6824 36.5126Z" fill="white"/>
<path fill-rule="evenodd" clip-rule="evenodd" d="M12.9335 29.9111C14.5555 30.9211 16.4591 31.0925 18.1485 30.5508C17.8883 28.7971 16.8937 27.1659 15.2717 26.1529C13.6466 25.1429 11.743 24.9685 10.0566 25.5133C10.3137 27.2669 11.3114 28.9012 12.9335 29.9111Z" fill="white"/>
<path fill-rule="evenodd" clip-rule="evenodd" d="M94.9506 9.67254C94.8252 11.2058 95.4005 12.6289 96.4074 13.6389C97.5673 12.8095 98.3692 11.4966 98.4946 9.96635C98.6201 8.43306 98.0448 7.00995 97.0348 6C95.878 6.82938 95.0731 8.14231 94.9506 9.67254Z" fill="white"/>
<path fill-rule="evenodd" clip-rule="evenodd" d="M91.0394 14.2449C92.2728 15.7016 94.0356 16.4484 95.8076 16.4484C96.0953 14.6978 95.6515 12.8371 94.4151 11.3833C93.1787 9.92657 91.4159 9.17676 89.6439 9.17982C89.3531 10.9273 89.803 12.7881 91.0394 14.2449Z" fill="white"/>
<path fill-rule="evenodd" clip-rule="evenodd" d="M98.7769 11.7442C97.3201 12.9806 96.5703 14.7434 96.5703 16.5124C98.3178 16.8031 100.179 16.3532 101.638 15.1199C103.095 13.8804 103.842 12.1206 103.842 10.3486C102.094 10.0579 100.237 10.5078 98.7769 11.7442Z" fill="white"/>
<path fill-rule="evenodd" clip-rule="evenodd" d="M88.1108 48.1239C88.426 46.6212 88.0312 45.1339 87.1559 44.0137C85.9042 44.6901 84.9463 45.8959 84.6311 47.3986C84.3158 48.9013 84.7106 50.3856 85.5859 51.5118C86.8376 50.8324 87.7956 49.6297 88.1108 48.1239Z" fill="white"/>
<path fill-rule="evenodd" clip-rule="evenodd" d="M92.5562 44.0717C91.5126 42.4741 89.8569 41.5131 88.0971 41.2928C87.5922 42.9913 87.8064 44.8949 88.8531 46.4925C89.8967 48.0931 91.5524 49.051 93.3122 49.2714C93.8171 47.5728 93.6029 45.6723 92.5562 44.0717Z" fill="white"/>
<path fill-rule="evenodd" clip-rule="evenodd" d="M84.5688 45.5931C86.1664 44.5494 87.1305 42.8968 87.3477 41.134C85.6492 40.629 83.7456 40.8463 82.148 41.893C80.5474 42.9366 79.5895 44.5954 79.3691 46.3521C81.0677 46.857 82.9682 46.6428 84.5688 45.5931Z" fill="white"/>
<path fill-rule="evenodd" clip-rule="evenodd" d="M128.381 39.6467C126.948 40.2067 125.923 41.3513 125.461 42.701C126.716 43.3773 128.246 43.5181 129.678 42.9581C131.107 42.398 132.136 41.2534 132.595 39.9037C131.34 39.2274 129.81 39.0866 128.381 39.6467Z" fill="white"/>
<path fill-rule="evenodd" clip-rule="evenodd" d="M122.553 38.147C121.785 39.9007 121.889 41.8073 122.669 43.4018C124.368 42.8938 125.84 41.6727 126.608 39.919C127.373 38.1685 127.266 36.2587 126.489 34.6673C124.787 35.1723 123.318 36.3965 122.553 38.147Z" fill="white"/>
<path fill-rule="evenodd" clip-rule="evenodd" d="M128.203 43.9985C126.452 43.2304 124.543 43.3344 122.951 44.1148C123.459 45.8134 124.68 47.2855 126.431 48.0536C128.181 48.8187 130.091 48.7147 131.686 47.9343C131.175 46.2327 129.953 44.7606 128.203 43.9985Z" fill="white"/>
<path fill-rule="evenodd" clip-rule="evenodd" d="M39.236 13.6174C37.8557 14.2907 36.9223 15.5118 36.5703 16.8921C37.8771 17.4674 39.4135 17.4858 40.7937 16.8125C42.174 16.1422 43.1044 14.9181 43.4563 13.5347C42.1526 12.9624 40.6162 12.9441 39.236 13.6174Z" fill="white"/>
<path fill-rule="evenodd" clip-rule="evenodd" d="M33.3077 12.5889C32.6833 14.3946 32.9404 16.2921 33.8463 17.8162C35.4959 17.1735 36.867 15.8391 37.4882 14.0304C38.1126 12.2247 37.8555 10.3303 36.9496 8.80316C35.3 9.44586 33.9289 10.7802 33.3077 12.5889Z" fill="white"/>
<path fill-rule="evenodd" clip-rule="evenodd" d="M39.4069 17.9663C37.6013 17.342 35.7038 17.5991 34.1797 18.505C34.8224 20.1576 36.1567 21.5257 37.9624 22.1469C39.7711 22.7682 41.6656 22.5142 43.1897 21.6113C42.55 19.9587 41.2157 18.5907 39.4069 17.9663Z" fill="white"/>
<path fill-rule="evenodd" clip-rule="evenodd" d="M49.7568 23.7228C49.2487 24.4634 49.1294 25.354 49.3497 26.1558C50.1791 26.0701 50.9656 25.6356 51.4737 24.8949C51.9787 24.1543 52.1011 23.2606 51.8807 22.4588C51.0513 22.5476 50.2648 22.9791 49.7568 23.7228Z" fill="white"/>
<path fill-rule="evenodd" clip-rule="evenodd" d="M46.4487 24.9132C46.6568 26.0119 47.3301 26.8994 48.2329 27.4136C48.8848 26.6087 49.1939 25.5344 48.9889 24.4357C48.7869 23.337 48.1044 22.4495 47.2077 21.9384C46.5528 22.7403 46.2406 23.8145 46.4487 24.9132Z" fill="white"/>
<path fill-rule="evenodd" clip-rule="evenodd" d="M51.1039 25.8806C50.0052 26.0857 49.1177 26.7651 48.6035 27.6649C49.4084 28.3198 50.4826 28.6289 51.5783 28.4238C52.68 28.2157 53.5676 27.5424 54.0787 26.6396C53.2738 25.9847 52.2026 25.6756 51.1039 25.8806Z" fill="white"/>
<path fill-rule="evenodd" clip-rule="evenodd" d="M115.235 29.8744C115.042 30.7528 115.265 31.625 115.77 32.286C116.508 31.8974 117.074 31.1996 117.267 30.3212C117.46 29.4429 117.236 28.5737 116.731 27.9127C115.991 28.3013 115.425 28.9991 115.235 29.8744Z" fill="white"/>
<path fill-rule="evenodd" clip-rule="evenodd" d="M112.616 32.2217C113.219 33.1643 114.183 33.7335 115.208 33.8712C115.511 32.8827 115.398 31.7656 114.795 30.8291C114.192 29.8865 113.231 29.3203 112.202 29.1796C111.896 30.1712 112.013 31.2821 112.616 32.2217Z" fill="white"/>
<path fill-rule="evenodd" clip-rule="evenodd" d="M117.291 31.374C116.351 31.9738 115.782 32.9378 115.645 33.9662C116.636 34.2691 117.75 34.1528 118.69 33.5499C119.632 32.9501 120.198 31.983 120.336 30.9577C119.345 30.6547 118.231 30.771 117.291 31.374Z" fill="white"/>
<path fill-rule="evenodd" clip-rule="evenodd" d="M49.2024 52.7453C49.5605 51.9221 49.5115 51.0254 49.1412 50.2786C48.3455 50.5173 47.6539 51.0927 47.2958 51.919C46.9377 52.7423 46.9897 53.639 47.357 54.3857C48.1527 54.144 48.8444 53.5686 49.2024 52.7453Z" fill="white"/>
<path fill-rule="evenodd" clip-rule="evenodd" d="M52.2261 50.952C51.819 49.9145 50.9835 49.1678 50.0042 48.8342C49.5145 49.7462 49.4105 50.8602 49.8206 51.9007C50.2307 52.9413 51.0631 53.688 52.0455 54.0186C52.5352 53.1035 52.6362 51.9895 52.2261 50.952Z" fill="white"/>
<path fill-rule="evenodd" clip-rule="evenodd" d="M47.4739 50.8785C48.5114 50.4653 49.2551 49.6359 49.5918 48.6535C48.6767 48.1639 47.5627 48.0629 46.5252 48.4699C45.4816 48.88 44.7379 49.7155 44.4043 50.6949C45.3194 51.1845 46.4334 51.2855 47.4739 50.8785Z" fill="white"/>
<path d="M29.0651 74.5751H21.4629V73.7029C22.2647 73.3815 23.0849 73.1428 23.9266 72.9806V55.1596C22.9839 55.0188 22.1637 54.7678 21.4629 54.4098V53.5375H29.0651V54.4098C28.7253 54.5903 28.3642 54.7403 27.9817 54.8597C27.6022 54.979 27.2104 55.08 26.8095 55.1596V63.0035H36.2449V55.1596C35.8225 55.0586 35.4277 54.9484 35.0574 54.829C34.6871 54.7097 34.3321 54.5689 33.9893 54.4098V53.5375H41.5915V54.4098C41.2304 54.6087 40.8356 54.7648 40.404 54.875C39.9725 54.9851 39.5471 55.08 39.1278 55.1596V72.9806C39.5869 73.0602 40.0307 73.1612 40.4499 73.2805C40.8692 73.3999 41.2518 73.5407 41.5915 73.7029V74.5751H33.9893V73.7029C34.7116 73.3815 35.4614 73.1428 36.2418 72.9806V64.5643H26.8064V72.9806C27.2074 73.0602 27.596 73.1612 27.9786 73.2805C28.3581 73.3999 28.7192 73.5407 29.062 73.7029V74.5751H29.0651Z" fill="white"/>
<path d="M55.8717 72.4693C55.7126 72.809 55.4616 73.1304 55.1189 73.4303C54.7792 73.7302 54.3874 73.9904 53.9467 74.2107C53.506 74.4311 53.0255 74.6055 52.5052 74.7371C51.985 74.8657 51.4525 74.933 50.9108 74.933C49.7294 74.933 48.6858 74.7463 47.786 74.376C46.8832 74.0057 46.1334 73.4732 45.5305 72.7846C44.9306 72.0929 44.4746 71.2666 44.1625 70.3056C43.8503 69.3446 43.6973 68.2612 43.6973 67.0584C43.6973 64.4938 44.2879 62.5412 45.4693 61.1977C46.6506 59.8572 48.3247 59.1839 50.4884 59.1839C51.1893 59.1839 51.8809 59.2788 52.5634 59.4685C53.2428 59.6583 53.8518 59.9735 54.3813 60.4142C54.9108 60.8549 55.3423 61.4425 55.6728 62.1709C56.0033 62.9023 56.1686 63.8082 56.1686 64.8916C56.1686 65.2314 56.1533 65.5772 56.1227 65.9291C56.0921 66.2811 56.037 66.6575 55.9574 67.0554H46.5802C46.5802 67.897 46.6843 68.6835 46.8954 69.415C47.1066 70.1464 47.4218 70.783 47.8411 71.3217C48.2635 71.8634 48.7929 72.2888 49.4356 72.5979C50.0752 72.91 50.8281 73.063 51.6912 73.063C52.392 73.063 53.102 72.9621 53.8243 72.7631C54.5466 72.5642 55.0852 72.301 55.4463 71.9827L55.8717 72.4693ZM50.3721 60.5091C49.2306 60.5091 48.3583 60.8947 47.7585 61.6659C47.1586 62.4372 46.7975 63.796 46.6781 65.7363H53.2887C53.3071 65.5558 53.3224 65.3813 53.3346 65.2099C53.3438 65.0385 53.3499 64.8733 53.3499 64.7141C53.3499 63.4318 53.1082 62.4096 52.6277 61.6476C52.1441 60.8916 51.3943 60.5091 50.3721 60.5091Z" fill="white"/>
<path d="M65.4873 74.5751H58.8156V73.8223C59.4766 73.5009 60.1377 73.2622 60.7987 73.1V54.0762L58.5156 53.8344V53.054C59.0359 52.8123 59.6878 52.6041 60.4682 52.4236C61.2486 52.243 62.0107 52.0931 62.7513 51.9737H63.5042V73.1C64.1652 73.2622 64.8263 73.5009 65.4873 73.8223V74.5751Z" fill="white"/>
<path d="M74.5351 74.5752H67.8633V73.8223C68.1632 73.6631 68.4754 73.5285 68.7937 73.4152C69.115 73.3051 69.4639 73.201 69.8465 73.1V61.2897L67.8633 61.048V60.2675C68.4448 60.0258 69.0752 59.8176 69.7546 59.6371C70.4371 59.4565 71.1165 59.3066 71.799 59.1872H72.5488V73.1031C72.9498 73.2041 73.3109 73.3081 73.6322 73.4183C73.9536 73.5285 74.2535 73.6631 74.532 73.8253V74.5752H74.5351Z" fill="white"/>
<path d="M83.0969 59.1871C84.1803 59.1871 85.0923 59.2911 85.8329 59.5023C86.5736 59.7135 87.1948 60.0379 87.6967 60.4786C88.8781 59.6767 90.1114 59.0953 91.3938 58.7341C91.5529 58.9545 91.6692 59.2238 91.7396 59.5451C91.81 59.8665 91.8437 60.1664 91.8437 60.448L91.4519 61.1702H88.2966C88.7985 61.8925 89.0495 62.8443 89.0495 64.0256C89.0495 65.4671 88.5445 66.6393 87.5315 67.5421C86.5185 68.4449 85.0403 68.8948 83.0969 68.8948C82.7174 68.8948 82.4052 68.8857 82.1665 68.8642C81.9278 68.8459 81.6554 68.8153 81.3555 68.7755C81.2545 68.956 81.1382 69.158 81.0097 69.3753C80.8781 69.5957 80.8138 69.8252 80.8138 70.067C80.8138 70.4679 81.0433 70.7831 81.5055 71.0127C81.9676 71.2422 82.5429 71.4473 83.2346 71.6278C83.9263 71.8084 84.6761 71.9951 85.4871 72.1848C86.2981 72.3746 87.0541 72.6347 87.7549 72.9652C88.4557 73.2958 89.0433 73.7273 89.5147 74.2567C89.986 74.7862 90.2308 75.4748 90.2522 76.3164C90.2706 77.0387 90.1053 77.6875 89.7564 78.269C89.4075 78.8505 88.9209 79.3371 88.2997 79.7258C87.6784 80.1175 86.9316 80.4174 86.0594 80.6286C85.1872 80.8398 84.2323 80.9438 83.1887 80.9438C81.0035 80.9438 79.357 80.5735 78.2461 79.8329C77.1351 79.0923 76.5781 78.1588 76.5781 77.0387C76.5781 76.497 76.6638 76.0257 76.8321 75.6248C77.0005 75.2239 77.2484 74.875 77.5697 74.572C77.8911 74.272 78.292 74.0058 78.7725 73.7763C79.253 73.5467 79.8038 73.3294 80.4251 73.1305C79.9844 72.9316 79.6172 72.6561 79.3295 72.3042C79.0387 71.9553 78.8949 71.5268 78.8949 71.028C78.8949 70.5689 79.0908 70.1098 79.4825 69.6599C79.8742 69.2101 80.269 68.855 80.6699 68.5918C79.5284 68.2919 78.6501 67.7196 78.041 66.878C77.4289 66.0364 77.1229 65.0846 77.1229 64.0226C77.1229 63.3432 77.2514 62.7066 77.5146 62.1159C77.7748 61.5253 78.1543 61.008 78.6562 60.5673C79.155 60.1266 79.7794 59.7869 80.52 59.5451C81.2545 59.3064 82.1145 59.1871 83.0969 59.1871ZM87.5468 77.0081C87.5468 76.3654 87.3295 75.8543 86.901 75.4748C86.4695 75.0922 85.9339 74.7831 85.2943 74.5444C84.6516 74.3027 83.963 74.1037 83.2224 73.9446C82.4817 73.7854 81.7901 73.6049 81.1474 73.4029C80.3853 73.865 79.8865 74.3486 79.6447 74.8597C79.4029 75.3708 79.2836 75.8972 79.2836 76.4389C79.2836 77.5008 79.6631 78.2965 80.4251 78.8291C81.1872 79.3585 82.2889 79.6248 83.7304 79.6248C84.471 79.6248 85.0862 79.5544 85.5789 79.4136C86.0686 79.2728 86.4603 79.0892 86.7511 78.8597C87.0418 78.6301 87.2469 78.3547 87.3662 78.0333C87.4856 77.7089 87.5468 77.3692 87.5468 77.0081ZM79.8222 64.0256C79.8222 64.5061 79.8773 64.9621 79.9875 65.3937C80.0976 65.8252 80.2782 66.2016 80.5292 66.5199C80.7801 66.8413 81.1168 67.0953 81.5361 67.285C81.9553 67.4748 82.4787 67.5697 83.0969 67.5697C84.2599 67.5697 85.0923 67.2299 85.5912 66.5475C86.0931 65.868 86.344 65.0264 86.344 64.0226C86.344 62.9423 86.0992 62.0853 85.6065 61.4549C85.1137 60.8244 84.2782 60.5092 83.0969 60.5092C81.8758 60.5092 81.025 60.8152 80.5414 61.4273C80.064 62.0364 79.8222 62.9025 79.8222 64.0256Z" fill="white"/>
<path d="M103.804 70.6362C103.804 71.0769 103.814 71.4595 103.835 71.7777C103.853 72.0991 103.875 72.4388 103.896 72.7999L105.968 73.0999V73.7303C105.469 73.9905 104.912 74.223 104.3 74.422C103.688 74.6209 103.104 74.7739 102.543 74.8719H101.794C101.592 74.4128 101.472 73.9048 101.433 73.3539C101.393 72.803 101.362 72.197 101.344 71.536H101.194C101.114 71.9369 100.958 72.3439 100.729 72.754C100.499 73.1641 100.199 73.5314 99.8258 73.8497C99.4555 74.171 99.0178 74.4312 98.519 74.6301C98.0171 74.829 97.4478 74.93 96.8051 74.93C95.5809 74.93 94.5863 74.5597 93.8151 73.8191C93.0438 73.0784 92.6582 72.1052 92.6582 70.9025C92.6582 69.9813 92.8418 69.2253 93.2152 68.6347C93.5855 68.044 94.1303 67.5788 94.8526 67.236C95.5748 66.8963 96.4654 66.6484 97.5274 66.4985C98.5894 66.3485 99.8197 66.2322 101.224 66.1526C101.304 65.2926 101.328 64.5153 101.298 63.8236C101.267 63.132 101.157 62.5413 100.967 62.0516C100.778 61.562 100.496 61.1794 100.126 60.9101C99.7554 60.6408 99.2688 60.503 98.6689 60.503C98.3874 60.503 98.0722 60.5183 97.7233 60.5489C97.3713 60.5795 97.0255 60.6652 96.6858 60.803L95.2718 64.4082H94.4914C94.2925 63.8083 94.115 63.1871 93.965 62.5444C93.8151 61.9047 93.7202 61.2743 93.6804 60.6499C94.4394 60.1878 95.2871 59.8297 96.2206 59.5665C97.151 59.3064 98.1884 59.1748 99.33 59.1748C100.352 59.1748 101.169 59.3217 101.778 59.6094C102.39 59.9001 102.856 60.2766 103.177 60.7356C103.498 61.1978 103.706 61.7089 103.807 62.2689C103.908 62.829 103.957 63.3921 103.957 63.9522C103.957 65.1549 103.933 66.3118 103.881 67.4227C103.829 68.549 103.804 69.614 103.804 70.6362ZM98.0048 73.0723C98.5037 73.0723 98.9474 72.9713 99.3269 72.7724C99.7064 72.5735 100.028 72.3317 100.288 72.0501C100.548 71.7686 100.759 71.4839 100.918 71.1932C101.081 70.9025 101.188 70.6576 101.249 70.4556V67.3003C100.086 67.3003 99.1341 67.3615 98.3935 67.4809C97.6529 67.6002 97.0714 67.793 96.649 68.0532C96.2298 68.3133 95.939 68.6377 95.7799 69.0295C95.6177 69.4212 95.5381 69.865 95.5381 70.3669C95.5381 71.2299 95.7584 71.894 96.1991 72.3653C96.6429 72.8367 97.2428 73.0723 98.0048 73.0723Z" fill="white"/>
<path d="M124 74.575H117.539V73.8221C118.081 73.5406 118.672 73.3019 119.311 73.0999V65.9782C119.311 64.4572 119.091 63.2544 118.65 62.373C118.21 61.4916 117.408 61.0509 116.245 61.0509C115.746 61.0509 115.278 61.1396 114.846 61.3202C114.415 61.5008 114.035 61.7456 113.705 62.0578C113.374 62.3699 113.089 62.7188 112.848 63.1106C112.606 63.5023 112.416 63.9063 112.275 64.3256V73.1029C112.897 73.2223 113.497 73.4641 114.078 73.8252V74.5781H107.59V73.8252C108.089 73.5651 108.753 73.3264 109.573 73.1029V61.2927L107.59 61.0509V60.2705C108.11 60.0501 108.713 59.8512 109.392 59.6706C110.072 59.4901 110.785 59.3309 111.526 59.1901H112.275V62.5566H112.306C112.725 61.6354 113.331 60.8428 114.124 60.1817C114.917 59.5207 115.871 59.1901 116.995 59.1901C117.796 59.1901 118.513 59.285 119.143 59.4747C119.774 59.6645 120.3 60.0011 120.722 60.4816C121.145 60.9621 121.463 61.6079 121.683 62.4189C121.904 63.2299 122.014 64.2582 122.014 65.4977V73.1029C122.816 73.2437 123.477 73.4824 123.997 73.8252V74.575H124Z" fill="white"/>
<path d="M25.1292 90.5207H25.3251C25.3495 90.6615 25.374 90.839 25.3924 91.0502C25.4138 91.2644 25.4169 91.4694 25.4077 91.6714C25.3312 91.7326 25.2424 91.7816 25.1384 91.8183C25.0343 91.8551 24.9211 91.8857 24.8048 91.9132C24.6885 91.9377 24.5661 91.9561 24.4437 91.9652C24.3212 91.9744 24.2049 91.9805 24.0948 91.9805C23.6755 91.9805 23.299 91.9255 22.9685 91.8183C22.638 91.7112 22.3595 91.546 22.1299 91.3256C21.9035 91.1053 21.726 90.8237 21.6036 90.4809C21.4811 90.1381 21.4199 89.7311 21.4199 89.2598C21.4199 88.7701 21.4873 88.3539 21.6219 88.0081C21.7566 87.6653 21.9402 87.3837 22.1697 87.1665C22.3993 86.9492 22.6686 86.79 22.9746 86.689C23.2807 86.588 23.602 86.5391 23.9356 86.5391C24.2661 86.5391 24.5446 86.5605 24.7711 86.6033C24.9976 86.6462 25.1935 86.7104 25.3648 86.7961C25.3648 86.8757 25.3618 86.9706 25.3587 87.0777C25.3526 87.1848 25.3465 87.298 25.3373 87.4205C25.3281 87.5398 25.3159 87.6592 25.3006 87.7724C25.2853 87.8887 25.27 87.9928 25.2547 88.0877H25.0588L24.6671 87.0073C24.612 86.9767 24.5202 86.9583 24.3947 86.9461C24.2661 86.9369 24.1407 86.9308 24.0152 86.9308C23.7642 86.9308 23.5286 86.9767 23.3082 87.0685C23.0848 87.1603 22.892 87.3042 22.7237 87.497C22.5554 87.6898 22.4237 87.9316 22.3228 88.2254C22.2218 88.5192 22.1728 88.8619 22.1728 89.2598C22.1728 89.6148 22.2187 89.9362 22.3075 90.2269C22.3962 90.5146 22.5278 90.7594 22.6961 90.9645C22.8675 91.1665 23.0726 91.3225 23.3174 91.4297C23.5622 91.5368 23.8377 91.5919 24.1498 91.5919C24.3151 91.5919 24.4528 91.5796 24.563 91.5551C24.6732 91.5307 24.7466 91.497 24.7803 91.4572L25.1292 90.5207Z" fill="white"/>
<path d="M28.8476 91.8856H27.1797V91.6683C27.3603 91.5887 27.5408 91.5275 27.7214 91.4877L29.6219 86.5359H29.8392L31.7398 91.4877C31.8408 91.5091 31.9387 91.5305 32.0366 91.555C32.1346 91.5795 32.2264 91.6162 32.3121 91.6683V91.8856H30.3748V91.6683C30.4758 91.6285 30.5768 91.5918 30.6839 91.5642C30.788 91.5336 30.892 91.5091 30.993 91.4877L30.485 90.1136H28.6977L28.2049 91.4877C28.4161 91.5183 28.6303 91.5765 28.8507 91.6683V91.8856H28.8476ZM28.8446 89.7218H30.3534L29.7627 88.1304L29.6219 87.4846H29.6066L29.4199 88.1457L28.8446 89.7218Z" fill="white"/>
<path d="M35.3687 91.4876C35.485 91.5121 35.5951 91.5396 35.6992 91.5672C35.8033 91.5947 35.9073 91.6284 36.0083 91.6682V91.8855H34.0312V91.6682C34.1414 91.6192 34.2455 91.5794 34.3465 91.5549C34.4475 91.5305 34.5454 91.506 34.6464 91.4876V87.0316C34.5148 87.0071 34.4016 86.9765 34.3006 86.9459C34.1996 86.9122 34.1108 86.8786 34.0312 86.8449V86.6276H34.6923C34.8943 86.6276 35.1116 86.6184 35.3503 86.597C35.589 86.5786 35.8216 86.5664 36.0481 86.5664C36.2929 86.5664 36.5225 86.5939 36.7367 86.649C36.9509 86.7041 37.1345 86.7929 37.2906 86.9122C37.4467 87.0316 37.5691 87.1846 37.6548 87.3713C37.7436 87.558 37.7864 87.7783 37.7864 88.0385C37.7864 88.4057 37.6885 88.7087 37.4957 88.9474C37.3029 89.1892 37.0397 89.3606 36.7091 89.4647C36.9234 89.8044 37.1498 90.1441 37.3855 90.4777C37.6212 90.8143 37.866 91.1448 38.1231 91.4754L38.5332 91.6927V91.8793H37.6181L37.3335 91.6682C37.1927 91.4937 37.0642 91.3223 36.9509 91.154C36.8346 90.9857 36.7275 90.8174 36.6265 90.6429C36.5255 90.4715 36.4337 90.294 36.345 90.1165C36.2562 89.939 36.1674 89.7493 36.0787 89.5503H35.3717V91.4876H35.3687ZM35.8767 86.9581C35.7573 86.9581 35.6563 86.9612 35.5798 86.9643C35.5033 86.9704 35.4299 86.9796 35.3656 86.9949V89.2259H35.9073C36.2531 89.2259 36.5286 89.1158 36.7306 88.8985C36.9326 88.6812 37.0336 88.3904 37.0336 88.0324C37.0336 87.6651 36.9264 87.3927 36.7091 87.2183C36.4949 87.0469 36.2195 86.9581 35.8767 86.9581Z" fill="white"/>
<path d="M41.7695 91.8856H40.1016V91.6683C40.2821 91.5887 40.4627 91.5275 40.6433 91.4877L42.5438 86.5359H42.7611L44.6616 91.4877C44.7626 91.5091 44.8606 91.5305 44.9585 91.555C45.0564 91.5795 45.1482 91.6162 45.2339 91.6683V91.8856H43.2967V91.6683C43.3977 91.6285 43.4987 91.5918 43.6058 91.5642C43.7098 91.5336 43.8139 91.5091 43.9149 91.4877L43.4068 90.1136H41.6195L41.1268 91.4877C41.338 91.5183 41.5522 91.5765 41.7726 91.6683V91.8856H41.7695ZM41.7664 89.7218H43.2753L42.6846 88.1304L42.5438 87.4846H42.5285L42.3418 88.1457L41.7664 89.7218Z" fill="white"/>
<path d="M50.0539 87.0345C49.9345 87.01 49.8213 86.9794 49.7172 86.9488C49.6132 86.9151 49.5091 86.8814 49.4081 86.8478V86.6305H51.0975V86.8478C50.9506 86.9274 50.7731 86.9916 50.5558 87.0345L48.8603 91.8853L48.4471 91.9771L46.5313 87.0345C46.4303 87.01 46.3324 86.9794 46.2375 86.9488C46.1426 86.9151 46.0508 86.8814 45.959 86.8478V86.6305H47.9483V86.8478C47.8626 86.8814 47.7677 86.9182 47.6637 86.9488C47.5596 86.9824 47.4494 87.01 47.3331 87.0345L48.6185 90.4683L48.7777 91.0681H48.793L48.9429 90.453L50.0539 87.0345Z" fill="white"/>
<path d="M53.4961 91.8856H51.8281V91.6683C52.0087 91.5887 52.1893 91.5275 52.3698 91.4877L54.2704 86.5359H54.4877L56.3882 91.4877C56.4892 91.5091 56.5871 91.5305 56.6851 91.555C56.783 91.5795 56.8748 91.6162 56.9605 91.6683V91.8856H55.0232V91.6683C55.1242 91.6285 55.2252 91.5918 55.3323 91.5642C55.4364 91.5336 55.5405 91.5091 55.6415 91.4877L55.1334 90.1136H53.3492L52.8564 91.4877C53.0676 91.5183 53.2818 91.5765 53.5022 91.6683V91.8856H53.4961ZM53.493 89.7218H55.0018L54.4112 88.1304L54.2704 87.4846H54.2551L54.0684 88.1457L53.493 89.7218Z" fill="white"/>
<path d="M62.1196 86.6278H63.7417V86.8451C63.5305 86.9858 63.3255 87.0868 63.1265 87.145V91.9744H62.6981L59.9712 87.8336L59.6774 87.249H59.656L59.7233 87.8336V91.4021C59.9284 91.4572 60.1212 91.5459 60.3017 91.6653V91.8826H58.6797V91.6653C58.7684 91.6102 58.8664 91.5612 58.9674 91.5184C59.0714 91.4755 59.1785 91.4357 59.2948 91.4021V87.096C59.1938 87.0562 59.0959 87.0134 58.998 86.9675C58.9 86.9216 58.8082 86.8787 58.7225 86.8328V86.6216H59.9926L62.3583 90.1901L62.7042 90.8359H62.7348L62.6981 90.1901V87.1419C62.594 87.096 62.493 87.0501 62.3951 86.9981C62.2971 86.9491 62.2053 86.894 62.1196 86.8389V86.6278Z" fill="white"/>
<path d="M74.0258 91.8856C73.9217 91.8152 73.7871 91.7295 73.6279 91.6254C73.4688 91.5244 73.2913 91.3775 73.1015 91.1939C73.0311 91.2888 72.9424 91.3836 72.8383 91.4755C72.7343 91.5673 72.6088 91.653 72.468 91.7264C72.3242 91.8029 72.165 91.8611 71.9906 91.907C71.8161 91.9529 71.6264 91.9743 71.4183 91.9743C71.152 91.9743 70.9133 91.9345 70.696 91.855C70.4787 91.7754 70.2982 91.6683 70.1482 91.5306C69.9982 91.3959 69.8819 91.2398 69.7993 91.0654C69.7167 90.8909 69.6738 90.7073 69.6738 90.5175C69.6738 90.2727 69.7197 90.0493 69.8085 89.8534C69.8972 89.6545 70.0074 89.4831 70.1298 89.3362C70.2553 89.1893 70.3838 89.0638 70.5216 88.9598C70.6562 88.8588 70.7695 88.7731 70.8582 88.7088C70.7144 88.5497 70.5889 88.3599 70.491 88.1457C70.39 87.9315 70.341 87.7295 70.341 87.5458C70.341 87.4204 70.3655 87.2979 70.4175 87.1725C70.4665 87.05 70.5399 86.9429 70.6379 86.8481C70.7358 86.7562 70.8552 86.6797 70.999 86.6216C71.1428 86.5634 71.302 86.5359 71.4826 86.5359C71.8131 86.5359 72.0793 86.6063 72.2813 86.7501C72.4833 86.894 72.5843 87.099 72.5843 87.3714C72.5843 87.5367 72.5568 87.6897 72.4986 87.8335C72.4405 87.9774 72.367 88.1059 72.2783 88.2283C72.1895 88.3477 72.0855 88.4578 71.9753 88.5588C71.862 88.6598 71.7519 88.7517 71.6417 88.8373C71.8467 89.0914 72.0855 89.3546 72.3548 89.6269C72.6241 89.8963 72.9118 90.1686 73.2117 90.438C73.2515 90.3829 73.3005 90.2911 73.3617 90.1595C73.4229 90.0279 73.478 89.8748 73.53 89.7004C73.582 89.526 73.6249 89.3331 73.6585 89.125C73.6922 88.9169 73.6983 88.7119 73.6861 88.5038C73.5361 88.4732 73.3892 88.415 73.2423 88.3232V88.1273H74.7664V88.3232C74.6318 88.4089 74.4665 88.467 74.2706 88.5038C74.2247 88.8006 74.1696 89.0669 74.0992 89.3087C74.0289 89.5504 73.9554 89.7616 73.882 89.9422C73.8054 90.1258 73.735 90.2788 73.6677 90.4074C73.6004 90.5359 73.5453 90.6277 73.5055 90.6889C73.6953 90.845 73.8819 90.9888 74.0656 91.1204C74.2492 91.252 74.4512 91.3836 74.6777 91.5152L75.0908 91.6958V91.8825H74.0258V91.8856ZM72.8475 90.9613C72.6976 90.8266 72.5323 90.6675 72.3548 90.4839C72.1773 90.3002 72.0059 90.1136 71.8406 89.9238C71.6754 89.7341 71.5223 89.5504 71.3816 89.376C71.2408 89.2015 71.1306 89.0546 71.051 88.9414C70.8307 89.1526 70.6715 89.3546 70.5736 89.5535C70.4757 89.7524 70.4267 89.982 70.4267 90.2482C70.4267 90.438 70.4573 90.6155 70.5216 90.7777C70.5858 90.9399 70.6715 91.0837 70.7817 91.2031C70.8919 91.3224 71.0265 91.4173 71.1826 91.4846C71.3387 91.552 71.507 91.5856 71.6907 91.5856C71.9171 91.5856 72.1283 91.5336 72.3242 91.4326C72.5231 91.3286 72.6976 91.1725 72.8475 90.9613ZM70.9102 87.5152C70.9102 87.604 70.9286 87.7019 70.9623 87.8029C70.9959 87.9039 71.0449 88.0049 71.1 88.1059C71.1581 88.2069 71.2194 88.3018 71.2867 88.3966C71.354 88.4915 71.4213 88.5742 71.4856 88.6507C71.6662 88.5007 71.8131 88.3293 71.9233 88.1334C72.0365 87.9376 72.0793 87.705 72.0549 87.4357C72.0457 87.2765 71.9936 87.1419 71.9049 87.0347C71.8161 86.9246 71.6723 86.8695 71.4764 86.8695C71.3663 86.8695 71.2744 86.8878 71.201 86.9246C71.1275 86.9613 71.0694 87.0133 71.0235 87.0745C70.9776 87.1357 70.947 87.2061 70.9286 87.2826C70.9194 87.3592 70.9102 87.4357 70.9102 87.5152Z" fill="white"/>
<path d="M84.2601 90.5204H84.4559C84.4804 90.6612 84.5049 90.8387 84.5233 91.0499C84.5447 91.2641 84.5477 91.4691 84.5386 91.6711C84.462 91.7323 84.3733 91.7813 84.2692 91.818C84.1652 91.8548 84.0519 91.8854 83.9356 91.9129C83.8193 91.9374 83.6969 91.9558 83.5745 91.9649C83.4521 91.9741 83.3358 91.9802 83.2256 91.9802C82.8033 91.9802 82.4299 91.9252 82.0994 91.818C81.7688 91.7109 81.4903 91.5457 81.2608 91.3253C81.0313 91.1049 80.8568 90.8234 80.7344 90.4806C80.612 90.1378 80.5508 89.7308 80.5508 89.2595C80.5508 88.7698 80.6181 88.3536 80.7528 88.0078C80.8874 87.665 81.0711 87.3834 81.3006 87.1661C81.5301 86.9489 81.7995 86.7897 82.1055 86.6887C82.4115 86.5877 82.7329 86.5388 83.0665 86.5388C83.397 86.5388 83.6755 86.5602 83.8989 86.603C84.1254 86.6459 84.3213 86.7101 84.4926 86.7958C84.4926 86.8754 84.4896 86.9703 84.4835 87.0774C84.4773 87.1845 84.4712 87.2977 84.462 87.4202C84.4529 87.5395 84.4406 87.6589 84.4253 87.7721C84.41 87.8884 84.3947 87.9925 84.3794 88.0873H84.1835L83.7918 87.007C83.7367 86.9764 83.6449 86.958 83.5194 86.9458C83.3909 86.9366 83.2654 86.9305 83.1399 86.9305C82.889 86.9305 82.6533 86.9764 82.433 87.0682C82.2096 87.16 82.0167 87.3039 81.8484 87.4967C81.6801 87.6895 81.5485 87.9313 81.4475 88.2251C81.3465 88.5189 81.2975 88.8616 81.2975 89.2595C81.2975 89.6145 81.3434 89.9359 81.4322 90.2266C81.5209 90.5143 81.6526 90.7591 81.8209 90.9642C81.9892 91.1662 82.1973 91.3222 82.4421 91.4294C82.687 91.5365 82.9655 91.5916 83.2746 91.5916C83.4399 91.5916 83.5776 91.5793 83.6877 91.5548C83.7979 91.5304 83.8683 91.4967 83.905 91.4569L84.2601 90.5204Z" fill="white"/>
<path d="M87.9785 91.8856H86.3105V91.6683C86.4911 91.5887 86.6717 91.5275 86.8523 91.4877L88.7528 86.5359H88.9701L90.8706 91.4877C90.9716 91.5091 91.0695 91.5305 91.1675 91.555C91.2654 91.5795 91.3572 91.6162 91.4429 91.6683V91.8856H89.5057V91.6683C89.6067 91.6285 89.7077 91.5918 89.8148 91.5642C89.9188 91.5336 90.0229 91.5091 90.1239 91.4877L89.6158 90.1136H87.8285L87.3358 91.4877C87.547 91.5183 87.7612 91.5765 87.9816 91.6683V91.8856H87.9785ZM87.9754 89.7218H89.4842L88.8936 88.1304L88.7528 87.4846H88.7375L88.5508 88.1457L87.9754 89.7218Z" fill="white"/>
<path d="M99.2168 91.8854H97.3683V91.6681C97.4693 91.6283 97.5703 91.5946 97.6682 91.5671C97.7692 91.5395 97.8702 91.512 97.9773 91.4875V88.1057L98.0079 87.2274H97.9467L97.6988 88.0322L96.1594 91.8854H95.9635L94.4976 88.0322L94.2283 87.1539H94.1609L94.167 88.1088V91.4906C94.2619 91.512 94.3568 91.5365 94.4517 91.5671C94.5465 91.5977 94.6414 91.6313 94.7363 91.6711V91.8884H93.1663V91.6711C93.2611 91.6313 93.3591 91.5946 93.4631 91.561C93.5672 91.5273 93.6713 91.5028 93.7753 91.4814V87.0345C93.6713 87.0162 93.5672 86.9886 93.4631 86.955C93.3621 86.9213 93.2581 86.8876 93.1602 86.8448V86.6275H94.6996L96.0064 90.0613L96.2604 90.8356H96.2665L96.5236 90.046L97.8763 86.6275H99.2198V86.8448C99.1311 86.8846 99.0362 86.9213 98.9414 86.955C98.8465 86.9886 98.7485 87.0131 98.6475 87.0345V91.4967C98.7516 91.515 98.8526 91.5395 98.9444 91.5671C99.0362 91.5946 99.125 91.6283 99.2107 91.6681V91.8854H99.2168Z" fill="white"/>
<path d="M102.515 91.4878C102.65 91.5031 102.778 91.5276 102.898 91.5582C103.017 91.5919 103.13 91.6255 103.237 91.6684V91.8857H101.178V91.6684C101.279 91.6194 101.38 91.5796 101.487 91.5551C101.591 91.5307 101.695 91.5062 101.796 91.4878V87.0318C101.68 87.0134 101.573 86.9859 101.472 86.9522C101.371 86.9185 101.273 86.8849 101.178 86.842V86.6248H101.854C102.053 86.6248 102.273 86.6156 102.509 86.5941C102.745 86.5758 102.971 86.5635 103.185 86.5635C103.43 86.5635 103.672 86.5911 103.908 86.6431C104.143 86.6951 104.351 86.7839 104.535 86.9094C104.719 87.0348 104.866 87.2001 104.979 87.4082C105.092 87.6163 105.147 87.8765 105.147 88.1856C105.147 88.4794 105.089 88.7334 104.976 88.9446C104.859 89.1557 104.706 89.3271 104.514 89.4618C104.321 89.5964 104.1 89.6974 103.856 89.7587C103.611 89.8199 103.357 89.8535 103.097 89.8535C103.072 89.8535 103.032 89.8535 102.98 89.8535C102.928 89.8535 102.87 89.8535 102.812 89.8505C102.751 89.8474 102.696 89.8443 102.641 89.8382C102.586 89.8321 102.546 89.829 102.521 89.8229V91.4878H102.515ZM103.026 86.9583C102.907 86.9583 102.809 86.9614 102.732 86.9645C102.656 86.9706 102.586 86.9798 102.515 86.9951V89.4281C102.54 89.4373 102.576 89.4434 102.625 89.4465C102.671 89.4495 102.723 89.4526 102.775 89.4587C102.827 89.4648 102.879 89.4649 102.928 89.4649C102.977 89.4649 103.017 89.4649 103.048 89.4649C103.222 89.4649 103.387 89.4404 103.543 89.3945C103.7 89.3455 103.834 89.269 103.954 89.1649C104.07 89.0609 104.165 88.9262 104.235 88.7671C104.306 88.6079 104.339 88.4151 104.339 88.1886C104.339 87.7785 104.223 87.4694 103.99 87.2644C103.758 87.0624 103.436 86.9583 103.026 86.9583Z" fill="white"/>
<path d="M109.225 91.8855H107.303V91.6682C107.499 91.5794 107.698 91.5182 107.903 91.4876V87.0316C107.802 87.0132 107.704 86.9857 107.603 86.952C107.502 86.9184 107.401 86.8847 107.303 86.8419V86.6246H109.225V86.8419C109.136 86.8816 109.038 86.9184 108.931 86.952C108.827 86.9857 108.723 87.0102 108.622 87.0316V91.4876C108.726 91.509 108.833 91.5335 108.937 91.5641C109.041 91.5947 109.136 91.6284 109.222 91.6682V91.8855H109.225Z" fill="white"/>
<path d="M114.745 86.6278H116.367V86.8451C116.155 86.9858 115.95 87.0868 115.752 87.145V91.9744H115.323L112.596 87.8336L112.302 87.249H112.281L112.348 87.8336V91.4021C112.553 91.4572 112.746 91.5459 112.927 91.6653V91.8826H111.305V91.6653C111.393 91.6102 111.491 91.5612 111.595 91.5184C111.696 91.4755 111.807 91.4357 111.923 91.4021V87.096C111.822 87.0562 111.724 87.0134 111.626 86.9675C111.528 86.9216 111.436 86.8787 111.351 86.8328V86.6216H112.621L114.986 90.1901L115.332 90.8359H115.363L115.326 90.1901V87.1419C115.222 87.096 115.121 87.0501 115.023 86.9981C114.925 86.9491 114.833 86.894 114.751 86.8389V86.6278H114.745Z" fill="white"/>
<path d="M122.662 91.5275C122.567 91.5826 122.457 91.6377 122.328 91.6897C122.2 91.7417 122.065 91.7907 121.924 91.8335C121.78 91.8764 121.64 91.91 121.496 91.9376C121.352 91.9651 121.22 91.9774 121.095 91.9774C120.694 91.9774 120.333 91.9223 120.012 91.8152C119.69 91.7081 119.418 91.5428 119.191 91.3194C118.965 91.096 118.79 90.8144 118.668 90.4747C118.546 90.135 118.484 89.7279 118.484 89.2566C118.484 88.767 118.555 88.3477 118.699 88.0018C118.839 87.656 119.032 87.3745 119.271 87.1572C119.51 86.9399 119.779 86.7807 120.082 86.6828C120.385 86.5848 120.694 86.5359 121.009 86.5359C121.34 86.5359 121.618 86.5573 121.848 86.6002C122.074 86.643 122.273 86.7073 122.445 86.793C122.445 86.8695 122.442 86.9613 122.435 87.0715C122.429 87.1816 122.423 87.2979 122.414 87.4173C122.405 87.5367 122.393 87.656 122.377 87.7754C122.362 87.8917 122.347 87.9957 122.331 88.0875H122.135L121.744 87.0072C121.689 86.9766 121.597 86.9582 121.465 86.946C121.337 86.9368 121.208 86.9307 121.083 86.9307C120.832 86.9307 120.596 86.9766 120.37 87.0684C120.146 87.1602 119.947 87.3041 119.782 87.4969C119.614 87.6897 119.482 87.9315 119.381 88.2253C119.28 88.5191 119.231 88.8618 119.231 89.2597C119.231 89.6147 119.28 89.9361 119.378 90.2207C119.476 90.5053 119.611 90.7501 119.782 90.9521C119.953 91.1541 120.155 91.3102 120.388 91.4204C120.621 91.5305 120.872 91.5856 121.141 91.5856C121.242 91.5856 121.337 91.5765 121.435 91.555C121.53 91.5367 121.615 91.5122 121.698 91.4846C121.777 91.4571 121.845 91.4295 121.897 91.3989C121.949 91.3683 121.986 91.3439 122.007 91.3224V89.8045C121.875 89.7953 121.753 89.7708 121.637 89.7371C121.52 89.7035 121.401 89.6637 121.288 89.6239V89.4066H123.127V89.6239C123.078 89.6575 123.017 89.6912 122.947 89.7218C122.876 89.7524 122.781 89.78 122.662 89.8045V91.5275Z" fill="white"/>
</svg>
