<svg width="513" height="512" viewBox="0 0 513 512" fill="none" xmlns="http://www.w3.org/2000/svg">
<rect width="512" height="512" transform="translate(0.502441)" fill="#F6F6EE"/>
<path fill-rule="evenodd" clip-rule="evenodd" d="M203.817 207.737C200.038 253.239 217.365 295.471 247.689 325.443C282.622 300.83 306.77 261.867 310.549 216.456C314.328 170.954 297 128.721 266.584 98.7501C231.744 123.363 207.503 162.326 203.817 207.737Z" fill="#EC1C24"/>
<path fill-rule="evenodd" clip-rule="evenodd" d="M86.0321 343.426C123.177 386.658 176.266 408.818 229.633 408.818C238.297 356.868 224.932 301.648 187.696 258.507C150.459 215.276 97.3691 193.024 44.0027 193.115C35.2466 244.975 48.7955 300.195 86.0321 343.426Z" fill="#9FB93B"/>
<path fill-rule="evenodd" clip-rule="evenodd" d="M319.029 269.218C275.156 305.91 252.574 358.224 252.574 410.719C305.203 419.347 361.243 405.996 405.208 369.395C449.08 332.612 471.57 280.389 471.57 227.803C418.941 219.175 362.994 232.526 319.029 269.218Z" fill="#9FB93B"/>
</svg>
