<svg width="19" height="22" viewBox="0 0 19 22" fill="none" xmlns="http://www.w3.org/2000/svg">
<path fill-rule="evenodd" clip-rule="evenodd" d="M1.09258 9.75774C-0.886216 6.43651 -1.23562 1.29997 9.40087 0.665771C20.0333 1.29972 19.6882 6.4326 17.7114 9.75394C17.3866 9.1505 16.8976 8.7133 16.4722 8.42449C15.7517 7.93532 14.8786 7.62431 14.0934 7.41451C12.4962 6.98771 10.6557 6.82495 9.45052 6.79614L9.42692 6.79558L9.40302 6.79501L9.37913 6.79558L9.35553 6.79614C8.15036 6.82495 6.30984 6.98771 4.7126 7.41451C3.92744 7.62431 3.0543 7.93532 2.33384 8.42449C1.90758 8.71391 1.41736 9.15233 1.09258 9.75774ZM4.72951 18.5868C3.73412 17.2857 2.92629 15.344 2.62244 13.1625C2.60097 12.5672 2.63135 11.9332 2.72381 11.2587L2.73058 11.2093L2.73241 11.1595C2.7478 10.7393 3.01488 10.3795 3.45728 10.0791C3.90829 9.77293 4.53347 9.53254 5.2289 9.34672C6.61996 8.97501 8.28966 8.82221 9.40302 8.79558C10.5164 8.82221 12.1861 8.97501 13.5771 9.34672C14.2726 9.53254 14.8978 9.77293 15.3488 10.0791C15.7912 10.3795 16.0582 10.7393 16.0736 11.1595L16.0755 11.2093L16.0822 11.2587C16.1747 11.9334 16.2051 12.5675 16.1836 13.1629C15.8797 15.344 15.0721 17.2853 14.0769 18.5864C13.9696 18.7101 13.8607 18.8291 13.7507 18.9435C12.2275 20.5271 10.5033 21.2166 10.2214 21.3197C10.0356 21.3876 9.71919 21.4217 9.40302 21.4217C9.08686 21.4217 8.7704 21.3876 8.58464 21.3197C8.30279 21.2166 6.57856 20.5271 5.05534 18.9435C4.94547 18.8293 4.83666 18.7104 4.72951 18.5868Z" fill="#D63544"/>
</svg>
