<svg width="25" height="25" viewBox="0 0 25 25" fill="none" xmlns="http://www.w3.org/2000/svg">
<path d="M21.1484 12.8323C21.2329 12.7504 21.2824 12.6389 21.2864 12.5213C21.2864 12.5063 21.2864 12.4933 21.2924 12.4783C21.2984 12.4633 21.2924 12.4513 21.2864 12.4373C21.2824 12.3194 21.233 12.2076 21.1484 12.1253L17.4794 8.45627C17.3851 8.36519 17.2588 8.3148 17.1277 8.31594C16.9966 8.31708 16.8712 8.36966 16.7785 8.46236C16.6858 8.55507 16.6332 8.68047 16.6321 8.81157C16.631 8.94267 16.6814 9.06897 16.7724 9.16327L19.5874 11.9793L8.84544 11.9793C8.71283 11.9793 8.58565 12.032 8.49188 12.1257C8.39811 12.2195 8.34544 12.3467 8.34544 12.4793C8.34544 12.6119 8.39811 12.7391 8.49188 12.8328C8.58565 12.9266 8.71283 12.9793 8.84544 12.9793L19.5874 12.9793L16.7724 15.7953C16.6814 15.8896 16.631 16.0159 16.6321 16.147C16.6332 16.2781 16.6858 16.4035 16.7785 16.4962C16.8712 16.5889 16.9966 16.6415 17.1277 16.6426C17.2588 16.6438 17.3851 16.5934 17.4794 16.5023L21.1484 12.8323Z" fill="white"/>
</svg>
