<svg width="32" height="21" viewBox="0 0 32 21" fill="none" xmlns="http://www.w3.org/2000/svg">
<path fill-rule="evenodd" clip-rule="evenodd" d="M19.3931 3.41149L15.9816 0L12.6071 3.37446C11.3405 4.64109 10.6132 6.24281 10.4252 7.89426C8.82385 7.31136 7.03383 7.19719 5.26286 7.67172L0 9.0819L1.39487 14.2876C2.62453 18.8768 7.34163 21.6002 11.9308 20.3705L15.9999 19.2802L20.0692 20.3706C24.6584 21.6003 29.3755 18.8769 30.6051 14.2877L32 9.08196L26.7371 7.67178C24.9647 7.19686 23.1732 7.31161 21.5709 7.89577C21.3765 6.25688 20.6506 4.66904 19.3931 3.41149ZM5.26286 7.67175L0 9.08193L1.39487 14.2877C2.62453 18.8768 7.34163 21.6002 11.9308 20.3706L16 19.2802L20.0692 20.3706C24.6584 21.6002 29.3755 18.8768 30.6051 14.2877L32 9.08193L26.7371 7.67175C22.148 6.44208 17.4309 9.1655 16.2012 13.7547L16 14.5056L15.7988 13.7547C14.5691 9.1655 9.85202 6.44208 5.26286 7.67175ZM5.75284 9.50038C9.33208 8.54132 13.0111 10.6654 13.9702 14.2446L14.875 17.6217L11.4408 18.5419C7.86158 19.501 4.18256 17.3769 3.2235 13.7977L2.31861 10.4206L5.75284 9.50038ZM26.2472 9.50038C22.6679 8.54132 18.9889 10.6654 18.0298 14.2446L17.125 17.6217L20.5592 18.5419C24.1384 19.501 27.8174 17.3769 28.7765 13.7977L29.6814 10.4206L26.2472 9.50038Z" fill="#D63544"/>
</svg>
