<svg width="20" height="20" viewBox="0 0 20 20" fill="none" xmlns="http://www.w3.org/2000/svg">
<mask id="mask0_1678_16986" style="mask-type:alpha" maskUnits="userSpaceOnUse" x="0" y="0" width="20" height="20">
<path d="M19.9999 9.99992C19.9999 15.5227 15.5228 19.9999 9.99996 19.9999C4.47716 19.9999 0 15.5227 0 9.99992C0 4.47704 4.47716 -4.00543e-05 9.99996 -4.00543e-05C15.5228 -4.00543e-05 19.9999 4.47704 19.9999 9.99992Z" fill="white"/>
</mask>
<g mask="url(#mask0_1678_16986)">
<path d="M9.99996 -0.000284195C4.47716 -0.000284195 0 4.47688 0 9.99967C0 14.2362 2.63582 17.8578 6.35572 19.3148C6.26834 18.5236 6.18931 17.3068 6.39039 16.4431C6.57212 15.6626 7.56301 11.4725 7.56301 11.4725C7.56301 11.4725 7.26389 10.8734 7.26389 9.98779C7.26389 8.59729 8.06984 7.5592 9.07335 7.5592C9.92651 7.5592 10.3386 8.19973 10.3386 8.96781C10.3386 9.82581 9.79232 11.1086 9.51042 12.2974C9.27483 13.2927 10.0095 14.1044 10.9912 14.1044C12.7686 14.1044 14.1348 12.2303 14.1348 9.52514C14.1348 7.13081 12.4144 5.45677 9.95774 5.45677C7.1124 5.45677 5.4423 7.59092 5.4423 9.79647C5.4423 10.6559 5.77339 11.5776 6.18653 12.0786C6.26825 12.1776 6.28022 12.2643 6.25588 12.3654C6.17997 12.6812 6.01127 13.3605 5.97815 13.4995C5.93455 13.6825 5.83323 13.7214 5.64371 13.6332C4.39478 13.0518 3.61391 11.2258 3.61391 9.75917C3.61391 6.60471 5.90585 3.70773 10.2213 3.70773C13.6903 3.70773 16.3861 6.17969 16.3861 9.48325C16.3861 12.9296 14.2131 15.7032 11.197 15.7032C10.1837 15.7032 9.23106 15.1768 8.90497 14.555C8.90497 14.555 8.40355 16.4643 8.28198 16.9322C8.05623 17.8007 7.44677 18.8895 7.03912 19.5537C7.97475 19.8434 8.96908 19.9996 9.99996 19.9996C15.5228 19.9996 20 15.5225 20 9.99967C20 4.47688 15.5228 -0.000284195 9.99996 -0.000284195Z" fill="white"/>
</g>
</svg>
