<svg width="1440" height="584" viewBox="0 0 1440 584" fill="none" xmlns="http://www.w3.org/2000/svg">
<path fill-rule="evenodd" clip-rule="evenodd" d="M1440 0H0V541.257V558.754V560.573C16.9955 561.536 34.1025 562.081 51.1937 562.22C68.2371 562.332 85.3284 562.178 102.356 561.857C108.093 561.733 113.859 561.608 119.651 561.483C130.741 561.244 141.928 561.002 153.198 560.755C155.314 560.712 157.433 560.674 159.555 560.635C161.642 560.597 163.732 560.559 165.821 560.517L178.38 560.35C181.19 560.303 183.956 560.294 186.723 560.285C188.105 560.28 189.488 560.275 190.875 560.266C192.95 560.266 195.041 560.252 197.115 560.238L203.115 560.294C209.167 560.272 215.85 560.497 222.565 560.723C224.457 560.786 226.35 560.85 228.234 560.908L241.16 561.327C243.442 561.414 245.729 561.498 248.02 561.582C250.118 561.659 252.22 561.735 254.325 561.816C289.561 563.1 325.467 564.733 361.851 566.52C388.135 567.801 414.667 569.167 441.379 570.543C488.605 572.976 536.394 575.437 584.372 577.506C621.921 579.125 659.582 580.507 697.132 581.47C701.723 581.572 706.307 581.671 710.886 581.77C715.682 581.874 720.474 581.977 725.266 582.084C729.991 582.162 734.712 582.244 739.429 582.326C743.984 582.405 748.534 582.483 753.081 582.559C757.576 582.633 762.068 582.705 766.554 582.776C771.288 582.851 776.017 582.927 780.737 583.005C789.945 583.117 799.121 583.229 808.265 583.34C881.481 584.192 953.021 584.248 1021.13 583.34C1089.24 582.447 1153.93 580.563 1213.41 577.896C1272.89 575.286 1327.14 571.559 1374.46 567.692C1378.08 567.371 1381.67 567.054 1385.21 566.74C1393.22 566.031 1401.02 565.34 1408.61 564.663C1414.08 564.189 1419.43 563.644 1424.66 563.1C1429.9 562.555 1435.01 562.011 1440 561.495V558.754V541.257V0Z" fill="#006D69"/>
</svg>
