<svg width="356" height="356" viewBox="0 0 356 356" fill="none" xmlns="http://www.w3.org/2000/svg">
<g clipPath="url(#clip0_582_14980)">
<rect width="356" height="356" fill="white"/>
<path d="M252.979 357C252.828 353.743 252.664 350.789 252.54 347.834C251.911 332.416 251.295 316.997 250.679 301.565C250.227 290.118 249.789 278.685 249.255 267.238C249.214 266.331 248.584 265.204 247.886 264.613C240.781 258.622 233.622 252.699 226.421 246.818C225.134 245.759 224.422 244.688 224.368 242.915C223.56 216.613 222.684 190.311 221.739 164.009C221.712 163.047 221.096 161.838 220.357 161.233C216.14 157.756 211.773 154.472 207.543 151.023C206.736 150.363 205.955 149.319 205.75 148.329C200.986 125.408 196.263 102.459 191.636 79.5101C191.39 78.2871 191.937 76.8991 192.156 75.2364C190.719 74.7554 190.226 73.0651 189.843 71.1C186.092 52.3149 182.245 33.5297 178.426 14.7583C178.357 14.4423 178.248 14.1399 177.728 13.8101C176.961 17.5067 176.181 21.1895 175.442 24.8861C172.279 40.5381 169.158 56.1901 165.9 71.8284C165.613 73.2438 164.476 74.4805 163.614 76.0059C164.942 76.8716 164.654 78.5069 164.285 80.3071C159.617 102.816 155.003 125.339 150.294 147.835C150.048 149.017 149.24 150.322 148.309 151.092C144.161 154.527 139.835 157.756 135.674 161.178C134.921 161.796 134.264 162.978 134.223 163.926C133.278 190.228 132.402 216.53 131.581 242.832C131.526 244.564 130.924 245.691 129.609 246.763C122.45 252.589 115.345 258.457 108.309 264.421C107.474 265.135 106.734 266.482 106.693 267.568C105.721 290.022 104.845 312.476 103.942 334.931C103.654 342.172 103.312 349.401 102.983 357C102.148 356.519 101.505 356.189 100.889 355.791C78.7532 341.403 63.3389 321.518 53.4551 297.154C47.4728 282.395 43.9547 266.991 42.3256 251.16C38.3009 212.16 43.7082 174.192 54.9199 136.91C63.0377 109.921 74.3041 84.3335 89.8006 60.7387C100.684 44.1797 113.319 29.2148 129.377 17.4242C140.068 9.56389 151.718 3.79229 164.832 1.27753C180.931 -1.8144 196.236 0.824046 210.856 7.91486C226.572 15.5279 239.358 26.8787 250.624 40.0434C268.872 61.3571 281.973 85.7214 292.267 111.694C301.959 136.127 308.585 161.412 312.24 187.466C314.786 205.688 315.704 223.992 314.43 242.365C312.706 267.224 307.161 291.053 294.923 312.985C285.121 330.561 271.87 344.921 254.991 355.859C254.43 356.23 253.814 356.533 252.992 357" fill="#2661AB"/>
</g>
<defs>
<clipPath id="clip0_582_14980">
<rect width="356" height="356" fill="white"/>
</clipPath>
</defs>
</svg>
